<?xml version="1.0" encoding="UTF-8"?><svg id="Layer_2" xmlns="http://www.w3.org/2000/svg" viewBox="0 0 78.34 162.4"><defs><style>.cls-1{fill:#0f206c;}.cls-1,.cls-2,.cls-3{fill-rule:evenodd;}.cls-4{fill:#fff;}.cls-5{fill:#fed103;}.cls-6{fill:#79cff0;}.cls-7{stroke:#231f20;stroke-linecap:round;stroke-width:1.37px;}.cls-7,.cls-8{fill:none;stroke-miterlimit:10;}.cls-9{fill:#483277;}.cls-2,.cls-10{fill:#35b7ea;}.cls-3,.cls-11{fill:#231f20;}.cls-12{fill:#ffd100;}.cls-8{stroke:#ed1c24;stroke-width:3.6px;}.cls-13{fill:#d1d3d4;}.cls-14{fill:#ed0a7c;}</style></defs><g id="Game_Character"><g id="_"><g><g><g><path class="cls-11" d="M16.6,3.76c-1.09-1.27-2.92-.11-3.54,.59-1.11,1.26-1.51,3.08-1.03,3.66,.48,.58,2.36,.57,3.84-.74,1.19-1.15,1.77-2.3,.73-3.51Zm-.77,3.47c-1.43,1.27-3.25,1.27-3.71,.71-.47-.56-.08-2.33,.99-3.54,.6-.68,2.37-1.8,3.42-.57,1,1.17,.44,2.29-.7,3.4Z"/><path class="cls-11" d="M17.8,5.25c-.92-1.4-2.88-.49-3.58,.13-1.26,1.11-1.89,2.86-1.49,3.5,.4,.63,2.27,.87,3.9-.24,1.32-.98,2.05-2.05,1.17-3.39Zm-1.21,3.34c-1.58,1.07-3.38,.84-3.77,.23-.39-.61,.22-2.32,1.44-3.39,.68-.6,2.58-1.48,3.47-.12,.85,1.29,.15,2.33-1.14,3.28Z"/><path class="cls-11" d="M18.94,6.81c-.73-1.51-2.8-.85-3.57-.33-1.39,.94-2.24,2.6-1.92,3.28s2.14,1.15,3.9,.26c1.44-.81,2.29-1.78,1.59-3.22Zm-1.62,3.16c-1.7,.86-3.46,.41-3.77-.25-.31-.66,.51-2.27,1.86-3.18,.75-.51,2.75-1.14,3.46,.32,.68,1.39-.15,2.33-1.54,3.11Z"/><path class="cls-11" d="M19.78,8.56c-.51-1.6-2.64-1.24-3.49-.84-1.51,.73-2.59,2.25-2.37,2.97,.22,.72,1.95,1.45,3.82,.82,1.54-.59,2.52-1.43,2.04-2.95Zm-2.06,2.89c-1.81,.61-3.49-.1-3.7-.79-.21-.7,.83-2.17,2.3-2.88,.82-.39,2.88-.73,3.37,.81,.47,1.47-.48,2.28-1.98,2.86Z"/><path class="cls-11" d="M20.39,10.59c-.19-1.66-2.35-1.73-3.26-1.5-1.63,.42-2.98,1.71-2.9,2.46,.07,.75,1.63,1.8,3.59,1.54,1.63-.28,2.75-.91,2.57-2.5Zm-2.58,2.44c-1.89,.25-3.4-.77-3.47-1.49s1.24-1.97,2.81-2.38c.88-.23,2.97-.16,3.15,1.45,.17,1.53-.92,2.15-2.49,2.42Z"/><path class="cls-11" d="M17.32,10.63c-1.64,.34-3.06,1.56-3.02,2.31s1.54,1.87,3.51,1.71c1.64-.2,2.79-.78,2.69-2.37-.11-1.67-2.27-1.84-3.18-1.65Zm.48,3.96c-1.9,.15-3.36-.93-3.4-1.66-.04-.73,1.33-1.91,2.92-2.24,.89-.18,2.97-.02,3.08,1.6,.1,1.54-1.02,2.1-2.6,2.3Z"/><path class="cls-11" d="M17.76,12.14c-1.67,.14-3.22,1.19-3.27,1.94s1.31,2.04,3.28,2.12c1.65,0,2.87-.44,2.95-2.03,.09-1.67-2.03-2.1-2.96-2.02Zm0,3.99c-1.91-.08-3.23-1.33-3.18-2.05,.05-.73,1.55-1.74,3.17-1.87,.9-.08,2.96,.34,2.87,1.96-.09,1.54-1.26,1.96-2.86,1.97Z"/><path class="cls-11" d="M17.86,13.61c-1.68,.02-3.3,.94-3.41,1.68-.11,.74,1.15,2.14,3.11,2.36,1.65,.12,2.89-.22,3.1-1.81,.22-1.66-1.87-2.25-2.8-2.24Zm-.29,3.98c-1.9-.22-3.12-1.57-3.01-2.29,.1-.72,1.68-1.61,3.3-1.63,.9,0,2.92,.56,2.71,2.17-.2,1.53-1.41,1.86-3,1.75Z"/><path class="cls-11" d="M17.71,15.14c-1.68,.02-3.3,.94-3.41,1.68-.11,.74,1.15,2.14,3.11,2.36,1.65,.12,2.89-.22,3.1-1.81,.22-1.66-1.87-2.25-2.8-2.24Zm-.29,3.98c-1.9-.22-3.12-1.57-3.01-2.29,.1-.72,1.68-1.61,3.3-1.63,.9,0,2.92,.56,2.71,2.17-.2,1.53-1.41,1.86-3,1.75Z"/><path class="cls-11" d="M17.62,16.59c-1.68-.06-3.34,.8-3.48,1.53-.14,.74,1.06,2.18,3.01,2.5,1.64,.19,2.9-.1,3.17-1.67,.29-1.65-1.77-2.33-2.7-2.36Zm2.61,2.35c-.27,1.52-1.49,1.8-3.07,1.62-1.89-.3-3.05-1.7-2.91-2.42,.14-.71,1.74-1.54,3.37-1.48,.9,.03,2.89,.69,2.61,2.28Z"/><path class="cls-11" d="M17.37,18.07c-1.68-.06-3.34,.8-3.48,1.53-.14,.74,1.06,2.18,3.01,2.5,1.64,.19,2.9-.1,3.17-1.67,.29-1.65-1.77-2.33-2.7-2.36Zm2.61,2.35c-.27,1.52-1.49,1.8-3.07,1.62-1.89-.3-3.05-1.7-2.91-2.42,.14-.71,1.74-1.54,3.37-1.48,.9,.03,2.89,.69,2.61,2.28Z"/><path class="cls-11" d="M17.11,19.52c-1.68-.06-3.34,.8-3.48,1.53-.14,.74,1.06,2.18,3.01,2.5,1.64,.19,2.9-.1,3.17-1.67,.29-1.65-1.77-2.33-2.7-2.36Zm2.61,2.35c-.27,1.52-1.49,1.8-3.07,1.62-1.89-.3-3.05-1.7-2.91-2.42,.14-.71,1.74-1.54,3.37-1.48,.9,.03,2.89,.69,2.61,2.28Z"/><path class="cls-11" d="M16.81,20.93c-1.68-.06-3.34,.8-3.48,1.53-.14,.74,1.06,2.18,3.01,2.5,1.64,.19,2.9-.1,3.17-1.67,.29-1.65-1.77-2.33-2.7-2.36Zm2.61,2.35c-.27,1.52-1.49,1.8-3.07,1.62-1.89-.3-3.05-1.7-2.91-2.42,.14-.71,1.74-1.54,3.37-1.48,.9,.03,2.89,.69,2.61,2.28Z"/><path class="cls-11" d="M16.61,22.49c-1.68-.06-3.34,.8-3.48,1.53-.14,.74,1.06,2.18,3.01,2.5,1.64,.19,2.9-.1,3.17-1.67,.29-1.65-1.77-2.33-2.7-2.36Zm2.61,2.35c-.27,1.52-1.49,1.8-3.07,1.62-1.89-.3-3.05-1.7-2.91-2.42,.14-.71,1.74-1.54,3.37-1.48,.9,.03,2.89,.69,2.61,2.28Z"/><path class="cls-11" d="M16.02,24.1c-1.64-.19-2.9,.1-3.17,1.67-.29,1.65,1.77,2.33,2.7,2.36,1.68,.06,3.34-.8,3.48-1.53,.14-.74-1.06-2.18-3.01-2.5Zm-.47,3.96c-.9-.03-2.89-.69-2.61-2.28,.27-1.52,1.49-1.8,3.07-1.62,1.89,.3,3.05,1.7,2.91,2.42s-1.74,1.54-3.37,1.48Z"/><path class="cls-11" d="M15.53,25.46c-1.64,.17-2.81,.71-2.75,2.31,.07,1.67,2.22,1.9,3.14,1.73,1.65-.3,3.09-1.49,3.07-2.24s-1.5-1.91-3.47-1.8Zm.39,3.97c-.89,.16-2.97-.05-3.04-1.67-.06-1.54,1.07-2.07,2.66-2.23,1.91-.11,3.34,1.01,3.36,1.74,.02,.73-1.38,1.88-2.98,2.17Z"/><path class="cls-11" d="M19.26,28.16c-.17-.73-1.85-1.58-3.76-1.08-1.58,.49-2.61,1.26-2.24,2.81,.4,1.63,2.55,1.42,3.42,1.08,1.56-.62,2.74-2.07,2.57-2.8Zm-2.59,2.74c-.84,.33-2.93,.53-3.31-1.04-.37-1.5,.64-2.24,2.16-2.72,1.85-.48,3.47,.33,3.63,1.04,.16,.71-.98,2.11-2.49,2.71Z"/><path class="cls-11" d="M19.68,29.01c-.32-.68-2.13-1.16-3.9-.27-1.44,.8-2.3,1.77-1.6,3.21,.73,1.51,2.79,.86,3.57,.34,1.4-.93,2.25-2.6,1.93-3.28Zm-1.96,3.22c-.75,.5-2.75,1.13-3.46-.33-.67-1.39,.16-2.33,1.55-3.11,1.71-.86,3.47-.4,3.77,.26,.31,.66-.52,2.27-1.87,3.17Z"/><path class="cls-11" d="M20.22,29.94c-.4-.64-2.26-.88-3.9,.22-1.33,.98-2.05,2.05-1.18,3.39,.91,1.4,2.88,.5,3.58-.12,1.27-1.1,1.9-2.86,1.5-3.5Zm-1.54,3.44c-.68,.59-2.59,1.47-3.47,.11-.84-1.29-.14-2.33,1.15-3.28,1.58-1.07,3.39-.83,3.78-.22,.39,.62-.23,2.32-1.45,3.38Z"/><path class="cls-11" d="M20.94,30.69c-.5-.56-2.37-.51-3.82,.84-1.16,1.18-1.7,2.35-.63,3.53,1.12,1.24,2.92,.03,3.52-.68,1.08-1.29,1.42-3.12,.93-3.69Zm-.98,3.64c-.58,.69-2.32,1.86-3.41,.66-1.04-1.15-.51-2.28,.61-3.42,1.4-1.3,3.21-1.36,3.69-.81,.48,.55,.14,2.32-.9,3.57Z"/><path class="cls-11" d="M21.79,31.39c-.57-.49-2.42-.15-3.65,1.39-.97,1.34-1.34,2.57-.1,3.59,1.29,1.06,2.89-.4,3.38-1.19,.87-1.43,.95-3.3,.37-3.78Zm-.43,3.75c-.47,.77-2.02,2.18-3.27,1.15-1.19-.98-.84-2.18,.1-3.47,1.19-1.5,2.98-1.82,3.53-1.35s.48,2.28-.36,3.66Z"/><path class="cls-11" d="M22.89,32.14c-.6-.45-2.43,0-3.56,1.61-.89,1.39-1.18,2.65,.11,3.59,1.36,.98,2.87-.57,3.3-1.39,.79-1.48,.75-3.35,.15-3.8Zm-.2,3.76c-.42,.8-1.89,2.3-3.2,1.35-1.25-.91-.97-2.12-.11-3.47,1.1-1.56,2.86-1.99,3.45-1.56s.62,2.24-.14,3.68Z"/><path class="cls-11" d="M23.93,32.68c-.64-.39-2.42,.24-3.38,1.96-.74,1.47-.91,2.75,.47,3.56,1.45,.84,2.79-.85,3.15-1.72,.63-1.56,.41-3.41-.24-3.8Zm.18,3.77c-.34,.84-1.64,2.48-3.05,1.66-1.33-.78-1.17-2.02-.46-3.44,.93-1.67,2.65-2.27,3.27-1.9,.62,.37,.84,2.17,.23,3.67Z"/></g><g><path class="cls-11" d="M75.54,21.31c-1.35-1.01-3.2-1.25-3.73-.73-.54,.53-.38,2.4,1.04,3.76,1.24,1.09,2.44,1.57,3.56,.44,1.18-1.19-.12-2.92-.87-3.48Zm.8,3.42c-1.09,1.1-2.25,.63-3.45-.43-1.38-1.32-1.53-3.13-1.01-3.64,.52-.51,2.31-.27,3.61,.7,.72,.54,1.98,2.22,.84,3.37Z"/><path class="cls-11" d="M74.68,22.59c-1.19-1.19-2.98-1.7-3.59-1.26-.61,.44-.72,2.32,.49,3.88,1.07,1.26,2.18,1.91,3.46,.95,1.34-1.01,.3-2.91-.36-3.57Zm.29,3.5c-1.24,.93-2.31,.3-3.35-.92-1.17-1.51-1.06-3.32-.47-3.75s2.33,.07,3.47,1.22c.64,.64,1.64,2.48,.34,3.45Z"/><path class="cls-11" d="M73.66,23.84c-.93-1.4-2.59-2.25-3.28-1.93s-1.16,2.13-.27,3.9c.8,1.44,1.77,2.3,3.21,1.6,1.51-.73,.86-2.79,.34-3.57Zm-.39,3.49c-1.39,.67-2.33-.16-3.11-1.55-.86-1.71-.4-3.47,.26-3.77,.66-.31,2.27,.52,3.17,1.87,.5,.75,1.13,2.75-.33,3.45Z"/><path class="cls-11" d="M72.27,24.52c-.86-1.44-2.48-2.37-3.18-2.09-.7,.28-1.26,2.07-.46,3.88,.73,1.48,1.66,2.38,3.13,1.76,1.54-.65,.99-2.75,.51-3.55Zm-.55,3.47c-1.42,.6-2.32-.27-3.03-1.7-.77-1.75-.23-3.48,.45-3.76s2.24,.63,3.08,2.02c.47,.78,1,2.8-.5,3.44Z"/><path class="cls-11" d="M70.99,25.44c-.69-1.53-2.18-2.65-2.91-2.45-.73,.2-1.5,1.91-.92,3.8,.55,1.56,1.36,2.56,2.9,2.12,1.61-.46,1.31-2.61,.93-3.46Zm-.97,3.37c-1.48,.43-2.27-.54-2.8-2.05-.56-1.83,.19-3.48,.89-3.67,.7-.19,2.15,.89,2.81,2.37,.37,.83,.66,2.9-.9,3.35Z"/><path class="cls-11" d="M69.63,26.01c-.57-1.58-1.98-2.81-2.71-2.66s-1.64,1.79-1.2,3.72c.43,1.59,1.17,2.66,2.73,2.33,1.64-.34,1.51-2.5,1.19-3.38Zm-1.22,3.29c-1.51,.32-2.22-.71-2.64-2.25-.42-1.86,.45-3.46,1.17-3.6,.71-.14,2.08,1.05,2.63,2.58,.31,.85,.44,2.94-1.15,3.27Z"/><path class="cls-11" d="M68.14,26.37c-.57-1.58-1.98-2.81-2.71-2.66-.74,.14-1.64,1.79-1.2,3.72,.43,1.59,1.17,2.66,2.73,2.33,1.64-.34,1.51-2.5,1.19-3.38Zm-1.22,3.29c-1.51,.32-2.22-.71-2.64-2.25-.42-1.86,.45-3.46,1.17-3.6,.71-.14,2.08,1.05,2.63,2.58,.31,.85,.44,2.94-1.15,3.27Z"/><path class="cls-11" d="M66.75,26.76c-.5-1.6-1.85-2.89-2.6-2.78-.74,.11-1.71,1.72-1.36,3.66,.36,1.61,1.05,2.7,2.62,2.45,1.65-.27,1.61-2.44,1.34-3.33Zm-1.36,3.24c-1.52,.25-2.19-.81-2.54-2.37-.34-1.88,.6-3.44,1.32-3.54,.72-.11,2.03,1.14,2.51,2.69,.27,.86,.31,2.96-1.29,3.22Z"/><path class="cls-11" d="M65.26,27.02c-.5-1.6-1.85-2.89-2.6-2.78-.74,.11-1.71,1.72-1.36,3.66,.36,1.61,1.05,2.7,2.62,2.45,1.65-.27,1.61-2.44,1.34-3.33Zm-1.36,3.24c-1.52,.25-2.19-.81-2.54-2.37-.34-1.88,.6-3.44,1.32-3.54,.72-.11,2.03,1.14,2.51,2.69,.27,.86,.31,2.96-1.29,3.22Z"/><path class="cls-11" d="M63.81,27.26c-.5-1.6-1.85-2.89-2.6-2.78-.74,.11-1.71,1.72-1.36,3.66,.36,1.61,1.05,2.7,2.62,2.45,1.65-.27,1.61-2.44,1.34-3.33Zm-1.36,3.24c-1.52,.25-2.19-.81-2.54-2.37-.34-1.88,.6-3.44,1.32-3.54,.72-.11,2.03,1.14,2.51,2.69,.27,.86,.31,2.96-1.29,3.22Z"/><path class="cls-11" d="M62.38,27.44c-.5-1.6-1.85-2.89-2.6-2.78-.74,.11-1.71,1.72-1.36,3.66,.36,1.61,1.05,2.7,2.62,2.45,1.65-.27,1.61-2.44,1.34-3.33Zm-1.36,3.24c-1.52,.25-2.19-.81-2.54-2.37-.34-1.88,.6-3.44,1.32-3.54,.72-.11,2.03,1.14,2.51,2.69,.27,.86,.31,2.96-1.29,3.22Z"/><path class="cls-11" d="M60.84,27.76c-.5-1.6-1.85-2.89-2.6-2.78-.74,.11-1.71,1.72-1.36,3.66,.36,1.61,1.05,2.7,2.62,2.45,1.65-.27,1.61-2.44,1.34-3.33Zm-1.36,3.24c-1.52,.25-2.19-.81-2.54-2.37-.34-1.88,.6-3.44,1.32-3.54,.72-.11,2.03,1.14,2.51,2.69,.27,.86,.31,2.96-1.29,3.22Z"/><path class="cls-11" d="M59.13,27.73c-.36-1.61-1.05-2.7-2.62-2.45-1.65,.27-1.61,2.44-1.34,3.33,.5,1.6,1.85,2.89,2.6,2.78,.74-.11,1.71-1.72,1.36-3.66Zm-1.38,3.56c-.72,.11-2.03-1.14-2.51-2.69-.27-.86-.31-2.96,1.29-3.22,1.52-.25,2.19,.81,2.54,2.37,.34,1.88-.6,3.44-1.32,3.54Z"/><path class="cls-11" d="M57.68,27.73c-.7-1.5-1.6-2.42-3.08-1.83-1.56,.62-1.06,2.72-.6,3.54,.83,1.46,2.43,2.43,3.13,2.16,.7-.27,1.31-2.04,.55-3.87Zm-.59,3.77c-.68,.26-2.22-.68-3.03-2.09-.45-.79-.93-2.83,.58-3.42,1.44-.57,2.31,.32,2.99,1.77,.73,1.76,.14,3.49-.54,3.74Z"/><path class="cls-11" d="M56.14,28.23c-.98-1.33-2.05-2.05-3.39-1.19-1.41,.91-.5,2.88,.11,3.58,1.1,1.27,2.86,1.9,3.49,1.5,.64-.4,.88-2.26-.22-3.9Zm.16,3.81c-.62,.39-2.32-.23-3.38-1.45-.59-.68-1.47-2.59-.11-3.47,1.3-.84,2.33-.14,3.28,1.15,1.07,1.59,.83,3.39,.21,3.78Z"/><path class="cls-11" d="M54.67,29.04c-1.23-1.09-2.43-1.58-3.56-.45-1.18,1.18,.11,2.92,.86,3.48,1.34,1.01,3.19,1.26,3.73,.74,.54-.52,.39-2.4-1.03-3.77Zm.95,3.69c-.52,.51-2.31,.26-3.61-.72-.72-.54-1.98-2.22-.83-3.37,1.09-1.09,2.25-.62,3.44,.44,1.37,1.33,1.52,3.14,1,3.65Z"/><path class="cls-11" d="M53.5,30.02c-1.36-.93-2.61-1.26-3.59,0-1.02,1.33,.48,2.88,1.29,3.34,1.46,.83,3.33,.85,3.79,.26,.47-.59,.08-2.43-1.5-3.61Zm1.41,3.54c-.45,.57-2.26,.55-3.67-.25-.79-.45-2.24-1.95-1.25-3.24,.94-1.22,2.15-.9,3.47,0,1.53,1.14,1.9,2.92,1.45,3.49Z"/><path class="cls-11" d="M52.48,31.23c-1.49-.7-2.78-.83-3.54,.57-.8,1.47,.93,2.77,1.81,3.1,1.57,.59,3.42,.31,3.79-.34,.37-.65-.3-2.41-2.05-3.33Zm1.96,3.27c-.36,.63-2.14,.9-3.67,.33-.85-.32-2.52-1.58-1.75-3,.74-1.36,1.98-1.23,3.43-.55,1.69,.89,2.34,2.58,1.99,3.22Z"/><path class="cls-11" d="M51.63,32.6c-1.58-.47-2.87-.41-3.42,1.08-.58,1.57,1.33,2.6,2.24,2.8,1.64,.35,3.43-.19,3.7-.9s-.65-2.34-2.52-2.99Zm2.42,2.95c-.26,.68-1.99,1.21-3.58,.87-.88-.19-2.73-1.19-2.17-2.71,.53-1.45,1.78-1.51,3.31-1.05,1.8,.63,2.7,2.21,2.44,2.89Z"/><path class="cls-11" d="M51.11,34.04c-1.61-.38-2.89-.24-3.35,1.29-.48,1.6,1.48,2.52,2.41,2.66,1.66,.25,3.41-.4,3.64-1.12,.23-.72-.79-2.29-2.69-2.83Zm2.59,2.8c-.22,.69-1.91,1.33-3.52,1.08-.89-.14-2.79-1.02-2.33-2.57,.44-1.48,1.69-1.61,3.24-1.25,1.84,.52,2.83,2.05,2.61,2.74Z"/><path class="cls-11" d="M50.68,35.48c-1.64-.22-2.9,.05-3.2,1.62-.32,1.64,1.73,2.36,2.66,2.4,1.68,.09,3.35-.74,3.51-1.48,.15-.74-1.02-2.2-2.96-2.55Zm-.53,3.95c-.9-.05-2.88-.73-2.58-2.33,.29-1.52,1.52-1.77,3.1-1.57,1.88,.33,3.02,1.75,2.87,2.46-.15,.71-1.77,1.51-3.39,1.43Z"/><path class="cls-11" d="M50.34,36.91c-1.65-.1-2.89,.26-3.08,1.84-.2,1.66,1.89,2.23,2.83,2.21,1.68-.04,3.29-.98,3.39-1.72,.1-.75-1.18-2.12-3.14-2.33Zm-.25,3.98c-.9,.02-2.93-.52-2.74-2.14,.18-1.53,1.38-1.88,2.98-1.78,1.9,.2,3.13,1.53,3.04,2.25-.1,.72-1.66,1.63-3.28,1.67Z"/></g></g><circle class="cls-5" cx="73.63" cy="23.94" r="4.71"/><circle class="cls-14" cx="12.98" cy="4.71" r="4.71"/></g><path class="cls-3" d="M12.48,67.97C4.57,67.08-.96,58.43,.14,48.66s8.4-16.98,16.32-16.09l-3.97,35.4Z"/><path class="cls-3" d="M55.12,72.75c7.91,.89,15.22-6.32,16.32-16.09,1.1-9.77-4.43-18.42-12.34-19.31l-3.97,35.4Z"/><rect class="cls-13" x="5.33" y="34.85" width="60.84" height="35.62" rx="8.64" ry="8.64" transform="translate(6.1 -3.66) rotate(6.41)"/><rect class="cls-13" x="12.09" y="80.53" width="50.27" height="43.67" rx="6.86" ry="6.86" transform="translate(139.59 65.14) rotate(90)"/><g><path class="cls-2" d="M33.62,162.4h-9.33c0-1.85,2.09-3.35,4.66-3.35s4.66,1.5,4.66,3.35Z"/><rect class="cls-10" x="14.19" y="142.05" width="33.63" height="7.07" rx="1.2" ry="1.2" transform="translate(176.59 114.58) rotate(90)"/></g><g><path class="cls-2" d="M40.57,162.4h9.33c0-1.85-2.09-3.35-4.66-3.35s-4.66,1.5-4.66,3.35Z"/><rect class="cls-10" x="26.38" y="142.05" width="33.63" height="7.07" rx="1.2" ry="1.2" transform="translate(188.78 102.39) rotate(90)"/></g><circle class="cls-12" cx="25.34" cy="96.52" r="8.29"/><circle class="cls-8" cx="48.04" cy="88.58" r="4.74"/><g><circle class="cls-4" cx="50.32" cy="53.76" r="4.71"/><circle class="cls-11" cx="49.99" cy="52.79" r="3.33"/><circle class="cls-4" cx="49.03" cy="50.76" r=".97"/></g><g><circle class="cls-4" cx="24.13" cy="50.76" r="4.71"/><circle class="cls-11" cx="23.88" cy="49.82" r="3.33"/><circle class="cls-4" cx="22.67" cy="47.98" r=".97"/></g><rect class="cls-10" x="34.37" y="66.82" width="5.7" height="15.11" rx="1.91" ry="1.91" transform="translate(111.61 37.15) rotate(90)"/><path class="cls-7" d="M20.25,44.08s.58-2.9,2.67-2.9,4.91,2.9,4.91,2.9"/><line class="cls-7" x1="48.13" y1="47.43" x2="55.12" y2="45.93"/><g><line class="cls-7" x1="32.3" y1="64.34" x2="38.7" y2="62.84"/><path class="cls-10" d="M24.71,89.49l-5.07-17.43c-.26-.87,.24-1.79,1.12-2.04l.9-.27c.87-.26,1.79,.24,2.04,1.12l6.51,22.46"/><path class="cls-10" d="M24.71,89.49l-9.34-7.04c-.72-.56-.85-1.59-.3-2.31l.57-.74c.56-.72,1.59-.85,2.31-.3l4.86,3.75"/><g><circle class="cls-6" cx="16.39" cy="80.64" r="4.01"/><path class="cls-6" d="M22.62,69.23c-1.5,.44-3.07-.43-3.51-1.93-.21-.72-.11-1.46,.21-2.08-1.72,.84-2.65,2.81-2.1,4.71,.62,2.12,2.84,3.34,4.97,2.72s3.34-2.84,2.72-4.97c-.07-.26-.17-.5-.29-.73-.17,1.04-.91,1.95-1.99,2.26Z"/></g><g><rect class="cls-10" x="60.18" y="80.25" width="4.23" height="35.34" rx="1.65" ry="1.65" transform="translate(-21.48 17.61) rotate(-13.75)"/><circle class="cls-6" cx="58.26" cy="80.64" r="4.01"/><path class="cls-6" d="M65.1,116.41c1.21-.99,3-.81,3.98,.41,.48,.58,.67,1.3,.62,2,1.26-1.44,1.35-3.62,.1-5.16-1.4-1.72-3.92-1.97-5.63-.58s-1.97,3.92-.58,5.63c.17,.21,.35,.39,.55,.55-.25-1.03,.08-2.15,.96-2.86Z"/></g></g><polygon class="cls-1" points="19.42 123.95 45.45 123.95 19.42 99.43 19.42 123.95"/><rect class="cls-9" x="43.97" y="96.22" width="8.63" height="23.57"/><rect class="cls-14" x="30.62" y="102.92" width="5.34" height="16.02" rx="1.33" ry="1.33" transform="translate(-77.64 144.23) rotate(-90)"/></g></g></svg>