<?xml version="1.0" encoding="UTF-8"?><svg id="Layer_2" xmlns="http://www.w3.org/2000/svg" viewBox="0 0 87.06 157.2"><defs><style>.cls-1{fill:#0f206c;}.cls-1,.cls-2,.cls-3{fill-rule:evenodd;}.cls-4{fill:#fff;}.cls-5{fill:#fed103;}.cls-6{fill:#79cff0;}.cls-7{stroke:#231f20;stroke-linecap:round;stroke-width:1.37px;}.cls-7,.cls-8{fill:none;stroke-miterlimit:10;}.cls-9{fill:#483277;}.cls-2,.cls-10{fill:#35b7ea;}.cls-3,.cls-11{fill:#231f20;}.cls-12{fill:#ffd100;}.cls-8{stroke:#ed1c24;stroke-width:3.6px;}.cls-13{fill:#d1d3d4;}.cls-14{fill:#ed0a7c;}</style></defs><g id="Game_Character"><g id="_"><path class="cls-3" d="M27.53,66.33c-7.96,0-14.42-7.97-14.42-17.81s6.46-17.81,14.42-17.81v35.62Z"/><path class="cls-3" d="M70.44,66.33c7.96,0,14.42-7.97,14.42-17.81,0-9.84-6.46-17.81-14.42-17.81v35.62Z"/><g><g><g><path class="cls-11" d="M22.87,2.93c-1.29-1.07-2.9,.38-3.39,1.17-.88,1.43-.97,3.29-.39,3.78,.57,.49,2.42,.17,3.66-1.37,.98-1.33,1.35-2.57,.12-3.59Zm-.17,3.55c-1.2,1.49-2.99,1.8-3.54,1.33-.55-.47-.47-2.28,.38-3.66,.48-.77,2.03-2.17,3.28-1.14,1.19,.99,.82,2.18-.12,3.47Z"/><path class="cls-11" d="M24.3,4.19c-1.14-1.23-2.92,0-3.51,.73-1.06,1.3-1.38,3.14-.88,3.7,.5,.56,2.38,.48,3.8-.89,1.14-1.19,1.67-2.37,.58-3.54Zm-.63,3.5c-1.38,1.32-3.19,1.4-3.68,.86-.49-.54-.18-2.32,.85-3.58,.57-.7,2.29-1.89,3.4-.71,1.05,1.13,.54,2.27-.57,3.43Z"/><path class="cls-11" d="M25.7,5.54c-.98-1.36-2.9-.36-3.57,.28-1.21,1.16-1.77,2.94-1.34,3.56,.43,.62,2.3,.77,3.89-.4,1.28-1.04,1.96-2.14,1.03-3.44Zm-1.06,3.39c-1.53,1.14-3.35,.99-3.76,.39-.42-.6,.12-2.32,1.29-3.45,.65-.62,2.51-1.59,3.46-.27,.9,1.25,.25,2.32-.99,3.33Z"/><path class="cls-11" d="M26.81,7.12c-.77-1.49-2.82-.78-3.58-.24-1.37,.97-2.18,2.66-1.84,3.33,.34,.67,2.16,1.1,3.9,.16,1.42-.84,2.25-1.83,1.51-3.25Zm-1.55,3.2c-1.68,.9-3.45,.49-3.78-.16s.45-2.28,1.78-3.22c.74-.52,2.72-1.21,3.46,.23,.71,1.37-.09,2.33-1.47,3.15Z"/><path class="cls-11" d="M27.76,9.02c-.47-1.61-2.61-1.31-3.46-.93-1.53,.69-2.65,2.19-2.45,2.91,.2,.72,1.91,1.5,3.8,.92,1.55-.55,2.56-1.37,2.11-2.9Zm-2.13,2.84c-1.83,.56-3.48-.19-3.68-.89s.89-2.15,2.37-2.82c.82-.37,2.9-.66,3.35,.9,.43,1.48-.54,2.27-2.05,2.81Z"/><path class="cls-11" d="M28.16,10.67c-.39-1.63-2.55-1.43-3.41-1.09-1.56,.61-2.75,2.06-2.59,2.79s1.84,1.59,3.75,1.1c1.58-.48,2.62-1.24,2.25-2.79Zm-2.27,2.73c-1.85,.47-3.47-.35-3.63-1.06-.16-.71,.99-2.11,2.5-2.7,.84-.33,2.93-.52,3.31,1.06,.36,1.5-.65,2.24-2.18,2.7Z"/><path class="cls-11" d="M28.69,12.48c-.19-1.66-2.36-1.73-3.26-1.49-1.63,.42-2.98,1.71-2.9,2.46,.08,.75,1.63,1.79,3.59,1.54,1.63-.29,2.75-.92,2.57-2.5Zm-2.58,2.44c-1.89,.25-3.4-.77-3.48-1.49s1.23-1.97,2.81-2.38c.88-.23,2.97-.16,3.15,1.45,.18,1.53-.91,2.15-2.49,2.42Z"/><path class="cls-11" d="M25.78,12.42c-1.65,.3-3.1,1.48-3.08,2.23,.02,.75,1.49,1.91,3.47,1.8,1.64-.16,2.81-.71,2.75-2.3-.07-1.67-2.22-1.9-3.14-1.74Zm.38,3.98c-1.91,.1-3.34-1.02-3.35-1.75-.02-.73,1.38-1.87,2.98-2.16,.89-.16,2.97,.06,3.04,1.68,.06,1.54-1.07,2.07-2.66,2.23Z"/><path class="cls-11" d="M25.88,13.95c-1.65,.3-3.1,1.48-3.08,2.23,.02,.75,1.49,1.91,3.47,1.8,1.64-.16,2.81-.71,2.75-2.3-.07-1.67-2.22-1.9-3.14-1.74Zm.38,3.98c-1.91,.1-3.34-1.02-3.35-1.75s1.38-1.87,2.98-2.16c.89-.16,2.97,.06,3.04,1.68,.06,1.54-1.07,2.07-2.66,2.23Z"/><path class="cls-11" d="M26.04,15.39c-1.66,.23-3.16,1.35-3.17,2.1-.01,.75,1.41,1.98,3.38,1.95,1.65-.09,2.84-.59,2.85-2.18,0-1.68-2.13-2-3.06-1.87Zm.21,3.99c-1.91,.02-3.29-1.16-3.28-1.89,.01-.73,1.46-1.81,3.07-2.03,.9-.12,2.97,.19,2.96,1.81,0,1.54-1.16,2.02-2.76,2.11Z"/><path class="cls-11" d="M26.04,16.9c-1.66,.23-3.16,1.35-3.17,2.1s1.41,1.98,3.38,1.95c1.65-.09,2.84-.59,2.85-2.18,0-1.68-2.13-2-3.06-1.87Zm.21,3.99c-1.91,.02-3.29-1.16-3.28-1.89s1.46-1.81,3.07-2.03c.9-.12,2.97,.19,2.96,1.81,0,1.54-1.16,2.02-2.76,2.11Z"/><path class="cls-11" d="M26.04,18.37c-1.66,.23-3.16,1.35-3.17,2.1s1.41,1.98,3.38,1.95c1.65-.09,2.84-.59,2.85-2.18,0-1.68-2.13-2-3.06-1.87Zm.21,3.99c-1.91,.02-3.29-1.16-3.28-1.89s1.46-1.81,3.07-2.03c.9-.12,2.97,.19,2.96,1.81,0,1.54-1.16,2.02-2.76,2.11Z"/><path class="cls-11" d="M25.98,19.81c-1.66,.23-3.16,1.35-3.17,2.1s1.41,1.98,3.38,1.95c1.65-.09,2.84-.59,2.85-2.18,0-1.68-2.13-2-3.06-1.87Zm.21,3.99c-1.91,.02-3.29-1.16-3.28-1.89,.01-.73,1.46-1.81,3.07-2.03,.9-.12,2.97,.19,2.96,1.81,0,1.54-1.16,2.02-2.76,2.11Z"/><path class="cls-11" d="M26.04,21.38c-1.66,.23-3.16,1.35-3.17,2.1-.01,.75,1.41,1.98,3.38,1.95,1.65-.09,2.84-.59,2.85-2.18,0-1.68-2.13-2-3.06-1.87Zm.21,3.99c-1.91,.02-3.29-1.16-3.28-1.89,.01-.73,1.46-1.81,3.07-2.03,.9-.12,2.97,.19,2.96,1.81,0,1.54-1.16,2.02-2.76,2.11Z"/><path class="cls-11" d="M25.72,23.07c-1.65,.09-2.84,.59-2.85,2.18,0,1.68,2.13,2,3.06,1.87,1.66-.23,3.16-1.35,3.17-2.1,.01-.75-1.41-1.98-3.38-1.95Zm.21,3.98c-.9,.12-2.97-.19-2.96-1.81,0-1.54,1.16-2.02,2.76-2.11,1.91-.02,3.29,1.16,3.28,1.89-.01,.73-1.46,1.81-3.07,2.03Z"/><path class="cls-11" d="M25.48,24.5c-1.59,.44-2.65,1.18-2.32,2.74,.35,1.64,2.51,1.5,3.39,1.18,1.58-.58,2.8-1.99,2.65-2.73-.15-.74-1.8-1.63-3.72-1.19Zm1.05,3.85c-.85,.31-2.94,.45-3.28-1.14-.32-1.51,.7-2.22,2.24-2.65,1.86-.43,3.46,.44,3.6,1.15s-1.04,2.08-2.57,2.64Z"/><path class="cls-11" d="M29.61,26.52c-.29-.69-2.08-1.24-3.88-.43-1.47,.75-2.37,1.68-1.73,3.14,.67,1.54,2.76,.97,3.55,.48,1.43-.88,2.35-2.5,2.06-3.2Zm-2.09,3.14c-.77,.47-2.79,1.02-3.44-.47-.61-1.42,.25-2.32,1.68-3.04,1.74-.79,3.48-.26,3.76,.42,.28,.67-.61,2.25-2,3.09Z"/><path class="cls-11" d="M30.17,27.3c-.43-.62-2.3-.78-3.89,.39-1.28,1.04-1.96,2.13-1.04,3.43,.97,1.36,2.9,.37,3.58-.27,1.22-1.16,1.78-2.94,1.35-3.56Zm-1.39,3.5c-.66,.62-2.52,1.58-3.46,.26-.9-1.26-.24-2.32,1-3.32,1.54-1.13,3.35-.98,3.76-.38,.41,.6-.13,2.32-1.31,3.44Z"/><path class="cls-11" d="M30.86,28.12c-.5-.56-2.38-.48-3.81,.88-1.14,1.19-1.68,2.37-.59,3.54,1.14,1.23,2.92,0,3.51-.72,1.06-1.3,1.39-3.14,.89-3.7Zm-.94,3.65c-.57,.7-2.3,1.89-3.4,.7-1.05-1.13-.53-2.27,.58-3.42,1.38-1.32,3.2-1.39,3.68-.85,.49,.54,.17,2.32-.86,3.58Z"/><path class="cls-11" d="M31.69,28.73c-.58-.47-2.42-.1-3.62,1.47-.94,1.36-1.28,2.6-.03,3.59,1.32,1.03,2.89-.46,3.35-1.27,.84-1.45,.88-3.32,.29-3.79Zm-.35,3.75c-.45,.78-1.97,2.23-3.25,1.23-1.21-.95-.88-2.16,.03-3.47,1.16-1.52,2.94-1.88,3.5-1.42,.57,.46,.53,2.26-.28,3.67Z"/><path class="cls-11" d="M32.64,29.28c-.65-.38-2.41,.26-3.36,1.99-.73,1.48-.88,2.76,.5,3.55,1.46,.83,2.79-.88,3.13-1.75,.62-1.56,.38-3.41-.27-3.79Zm.21,3.76c-.33,.84-1.62,2.49-3.03,1.69-1.34-.76-1.19-2.01-.49-3.44,.92-1.67,2.63-2.29,3.26-1.92,.63,.37,.86,2.16,.26,3.67Z"/><path class="cls-11" d="M33.86,29.84c-.67-.34-2.39,.4-3.24,2.19-.64,1.52-.72,2.81,.71,3.52,1.5,.74,2.73-1.04,3.02-1.93,.53-1.6,.17-3.43-.5-3.77Zm.43,3.75c-.28,.86-1.47,2.59-2.92,1.87-1.39-.68-1.31-1.93-.69-3.4,.82-1.73,2.49-2.45,3.13-2.12s.99,2.11,.48,3.65Z"/><path class="cls-11" d="M34.97,30.19c-.7-.27-2.34,.64-3,2.5-.48,1.58-.43,2.87,1.06,3.43,1.57,.59,2.61-1.31,2.81-2.22,.36-1.64-.17-3.43-.87-3.7Zm.81,3.68c-.2,.88-1.2,2.72-2.72,2.15-1.45-.54-1.5-1.79-1.03-3.32,.64-1.8,2.23-2.68,2.91-2.42,.68,.26,1.2,2,.84,3.58Z"/></g><g><path class="cls-11" d="M83.93,10.29c-1.5-.76-3.36-.7-3.8-.09-.44,.61,.03,2.43,1.66,3.54,1.4,.87,2.67,1.14,3.58-.17,.96-1.37-.61-2.86-1.44-3.28Zm1.36,3.23c-.89,1.26-2.11,1-3.47,.16-1.58-1.07-2.04-2.83-1.61-3.42s2.23-.65,3.68,.09c.81,.41,2.33,1.85,1.4,3.18Z"/><path class="cls-11" d="M83.3,11.69c-1.37-.97-3.22-1.18-3.75-.64-.52,.54-.32,2.41,1.13,3.74,1.26,1.06,2.47,1.52,3.57,.36,1.15-1.22-.19-2.92-.95-3.46Zm.88,3.4c-1.06,1.12-2.23,.68-3.46-.34-1.41-1.29-1.6-3.1-1.1-3.62,.51-.52,2.3-.32,3.63,.62,.74,.52,2.04,2.17,.92,3.35Z"/><path class="cls-11" d="M82.5,13.09c-1.15-1.22-2.94-1.78-3.55-1.35s-.78,2.3,.39,3.89c1.04,1.29,2.13,1.96,3.43,1.04,1.37-.97,.38-2.9-.27-3.58Zm.21,3.5c-1.26,.9-2.32,.24-3.32-1.01-1.13-1.54-.97-3.35-.38-3.76,.6-.41,2.32,.13,3.44,1.31,.62,.66,1.58,2.52,.26,3.46Z"/><path class="cls-11" d="M81.25,14c-1.09-1.27-2.85-1.92-3.49-1.52-.64,.4-.89,2.26,.2,3.9,.97,1.33,2.04,2.07,3.38,1.2,1.41-.9,.51-2.88-.09-3.58Zm.04,3.51c-1.3,.83-2.33,.13-3.27-1.17-1.06-1.59-.81-3.39-.19-3.78,.62-.38,2.31,.24,3.37,1.47,.59,.69,1.46,2.59,.09,3.47Z"/><path class="cls-11" d="M80.14,15.12c-.93-1.4-2.6-2.24-3.28-1.93s-1.15,2.13-.27,3.9c.81,1.44,1.77,2.29,3.21,1.6,1.51-.73,.86-2.79,.34-3.57Zm-.38,3.49c-1.39,.67-2.33-.15-3.11-1.55-.86-1.71-.4-3.47,.26-3.77,.66-.31,2.27,.51,3.17,1.87,.5,.75,1.14,2.75-.32,3.46Z"/><path class="cls-11" d="M78.9,15.92c-.83-1.46-2.42-2.43-3.12-2.17-.7,.27-1.31,2.04-.56,3.87,.7,1.5,1.6,2.42,3.08,1.84,1.56-.61,1.06-2.72,.6-3.53Zm-.64,3.45c-1.44,.57-2.31-.33-2.98-1.78-.73-1.77-.14-3.49,.54-3.74,.68-.26,2.22,.68,3.02,2.1,.45,.79,.93,2.83-.58,3.42Z"/><path class="cls-11" d="M77.49,16.52c-.83-1.46-2.42-2.43-3.12-2.17-.7,.27-1.31,2.04-.56,3.87,.7,1.5,1.6,2.42,3.08,1.84,1.56-.61,1.06-2.72,.6-3.53Zm-.64,3.45c-1.44,.57-2.31-.33-2.98-1.78-.73-1.77-.14-3.49,.54-3.74s2.22,.68,3.02,2.1c.45,.79,.93,2.83-.58,3.42Z"/><path class="cls-11" d="M76.18,17.14c-.76-1.5-2.31-2.54-3.03-2.3-.71,.23-1.4,1.98-.73,3.84,.63,1.53,1.49,2.49,3,1.97,1.58-.55,1.18-2.67,.76-3.5Zm-.79,3.42c-1.46,.5-2.29-.43-2.9-1.91-.65-1.8,.01-3.49,.7-3.72,.69-.23,2.19,.78,2.93,2.23,.41,.81,.8,2.86-.73,3.39Z"/><path class="cls-11" d="M74.76,17.64c-.76-1.5-2.31-2.54-3.03-2.3-.71,.23-1.4,1.98-.73,3.84,.63,1.53,1.49,2.49,3,1.97,1.58-.55,1.18-2.67,.76-3.5Zm-.79,3.42c-1.46,.5-2.29-.43-2.9-1.91-.65-1.8,.01-3.49,.7-3.72,.69-.23,2.19,.78,2.93,2.23,.41,.81,.8,2.86-.73,3.39Z"/><path class="cls-11" d="M73.37,18.12c-.76-1.5-2.31-2.54-3.03-2.3-.71,.23-1.4,1.98-.73,3.84,.63,1.53,1.49,2.49,3,1.97,1.58-.55,1.18-2.67,.76-3.5Zm-.79,3.42c-1.46,.5-2.29-.43-2.9-1.91-.65-1.8,.01-3.49,.7-3.72,.69-.23,2.19,.78,2.93,2.23,.41,.81,.8,2.86-.73,3.39Z"/><path class="cls-11" d="M71.99,18.54c-.76-1.5-2.31-2.54-3.03-2.3-.71,.23-1.4,1.98-.73,3.84,.63,1.53,1.49,2.49,3,1.97,1.58-.55,1.18-2.67,.76-3.5Zm-.79,3.42c-1.46,.5-2.29-.43-2.9-1.91-.65-1.8,.01-3.49,.7-3.72s2.19,.78,2.93,2.23c.41,.81,.8,2.86-.73,3.39Z"/><path class="cls-11" d="M70.53,19.12c-.76-1.5-2.31-2.54-3.03-2.3-.71,.23-1.4,1.98-.73,3.84,.63,1.53,1.49,2.49,3,1.97,1.58-.55,1.18-2.67,.76-3.5Zm-.79,3.42c-1.46,.5-2.29-.43-2.9-1.91-.65-1.8,.01-3.49,.7-3.72,.69-.23,2.19,.78,2.93,2.23,.41,.81,.8,2.86-.73,3.39Z"/><path class="cls-11" d="M68.83,19.38c-.63-1.53-1.49-2.49-3-1.97-1.58,.55-1.18,2.67-.76,3.5,.76,1.5,2.31,2.54,3.03,2.3,.71-.23,1.4-1.98,.73-3.84Zm-.76,3.74c-.69,.23-2.19-.78-2.93-2.23-.41-.81-.8-2.86,.73-3.39,1.46-.5,2.29,.43,2.9,1.91,.65,1.8-.01,3.49-.7,3.72Z"/><path class="cls-11" d="M67.41,19.62c-.94-1.36-1.99-2.11-3.35-1.28-1.43,.87-.58,2.86,0,3.59,1.06,1.3,2.8,1.99,3.45,1.6,.65-.38,.95-2.24-.11-3.91Zm.05,3.81c-.63,.37-2.31-.3-3.34-1.55-.57-.7-1.39-2.63,0-3.47,1.32-.8,2.33-.07,3.24,1.24,1.02,1.62,.73,3.41,.1,3.78Z"/><path class="cls-11" d="M65.97,20.38c-1.19-1.14-2.36-1.68-3.54-.6-1.23,1.14,0,2.92,.72,3.51,1.3,1.06,3.14,1.39,3.7,.89,.56-.5,.48-2.38-.88-3.81Zm.8,3.73c-.54,.49-2.32,.17-3.58-.86-.7-.57-1.88-2.3-.69-3.4,1.14-1.05,2.27-.53,3.42,.58,1.32,1.38,1.39,3.2,.85,3.69Z"/><path class="cls-11" d="M64.66,21.43c-1.4-.87-2.66-1.15-3.58,.15-.97,1.37,.6,2.86,1.43,3.29,1.49,.77,3.36,.71,3.8,.1s-.02-2.43-1.65-3.54Zm1.56,3.48c-.43,.59-2.23,.65-3.68-.1-.8-.41-2.32-1.86-1.39-3.18,.89-1.26,2.11-.99,3.47-.15,1.58,1.08,2.03,2.84,1.6,3.43Z"/><path class="cls-11" d="M63.67,22.59c-1.5-.69-2.79-.8-3.54,.61-.79,1.48,.96,2.76,1.84,3.08,1.58,.57,3.42,.28,3.78-.38,.36-.66-.33-2.4-2.09-3.3Zm1.99,3.25c-.35,.64-2.14,.92-3.66,.37-.85-.31-2.54-1.55-1.78-2.98,.73-1.36,1.97-1.25,3.42-.59,1.7,.87,2.37,2.56,2.02,3.2Z"/><path class="cls-11" d="M62.87,23.95c-1.59-.44-2.88-.35-3.4,1.16-.54,1.58,1.38,2.57,2.3,2.75,1.65,.32,3.42-.27,3.68-.98,.25-.71-.71-2.32-2.58-2.93Zm2.48,2.9c-.25,.69-1.96,1.25-3.56,.94-.89-.17-2.75-1.13-2.23-2.66,.5-1.46,1.75-1.55,3.29-1.12,1.82,.59,2.74,2.15,2.5,2.84Z"/><path class="cls-11" d="M62.27,25.44c-1.64-.2-2.9,.08-3.19,1.65-.3,1.65,1.75,2.34,2.68,2.38,1.68,.07,3.35-.77,3.49-1.51s-1.04-2.19-2.99-2.52Zm-.5,3.96c-.9-.04-2.89-.71-2.6-2.3,.28-1.52,1.5-1.79,3.09-1.59,1.88,.32,3.03,1.72,2.89,2.44-.14,.71-1.76,1.53-3.38,1.46Z"/><path class="cls-11" d="M61.99,26.95c-1.65-.1-2.89,.25-3.08,1.83-.2,1.66,1.89,2.23,2.82,2.22,1.68-.03,3.29-.97,3.4-1.71s-1.17-2.13-3.13-2.34Zm-.26,3.98c-.9,.02-2.93-.53-2.73-2.14,.19-1.53,1.39-1.87,2.98-1.77,1.9,.2,3.13,1.54,3.03,2.26s-1.66,1.63-3.29,1.66Z"/><path class="cls-11" d="M61.81,28.45c-1.65,.06-2.85,.54-2.88,2.13-.04,1.67,2.1,2.03,3.03,1.92,1.67-.2,3.18-1.29,3.21-2.05,.03-.75-1.38-2-3.35-2.01Zm.14,3.99c-.9,.11-2.97-.24-2.93-1.86,.03-1.54,1.2-2,2.79-2.07,1.91,.01,3.27,1.22,3.24,1.95-.03,.73-1.49,1.79-3.1,1.98Z"/><path class="cls-11" d="M61.72,29.91c-1.64,.18-2.8,.74-2.72,2.34,.09,1.67,2.24,1.87,3.16,1.7,1.65-.32,3.08-1.52,3.05-2.27-.03-.75-1.52-1.89-3.49-1.76Zm.43,3.97c-.89,.17-2.97-.02-3.06-1.64-.08-1.54,1.05-2.09,2.64-2.26,1.91-.13,3.35,.98,3.37,1.71,.03,.73-1.36,1.89-2.95,2.2Z"/></g></g><circle class="cls-5" cx="82.36" cy="13.42" r="4.71"/><circle class="cls-14" cx="19.33" cy="4.71" r="4.71"/></g><rect class="cls-13" x="18.52" y="30.71" width="60.84" height="35.62" rx="8.64" ry="8.64"/><rect class="cls-13" x="24.23" y="75.33" width="50.27" height="43.67" rx="6.86" ry="6.86" transform="translate(146.54 47.8) rotate(90)"/><g><path class="cls-2" d="M45.76,157.2h-9.33c0-1.85,2.09-3.35,4.66-3.35s4.66,1.5,4.66,3.35Z"/><rect class="cls-10" x="26.33" y="136.85" width="33.63" height="7.07" rx="1.2" ry="1.2" transform="translate(183.53 97.24) rotate(90)"/></g><g><path class="cls-2" d="M52.72,157.2h9.33c0-1.85-2.09-3.35-4.66-3.35s-4.66,1.5-4.66,3.35Z"/><rect class="cls-10" x="38.52" y="136.85" width="33.63" height="7.07" rx="1.2" ry="1.2" transform="translate(195.72 85.05) rotate(90)"/></g><circle class="cls-12" cx="37.48" cy="91.32" r="8.29"/><circle class="cls-8" cx="60.18" cy="83.38" r="4.74"/><rect class="cls-10" x="46.52" y="61.62" width="5.7" height="15.11" rx="1.91" ry="1.91" transform="translate(118.55 19.81) rotate(90)"/><g><path class="cls-10" d="M77.97,86.66l-7.47,14.42c-.46,.78-.2,1.79,.59,2.25l.81,.48c.78,.46,1.79,.2,2.25-.59l8.11-15.13"/><path class="cls-10" d="M82.26,88.09l-9.54-12.87c-.54-.73-1.57-.88-2.3-.34l-.76,.56c-.73,.54-.88,1.57-.34,2.3l9.54,12.87"/><circle class="cls-6" cx="70.4" cy="75.53" r="4.01"/><path class="cls-6" d="M71.21,106.29c.48-1.49-.33-3.09-1.82-3.57-.72-.23-1.46-.16-2.09,.14,.89-1.7,2.89-2.56,4.78-1.95,2.1,.69,3.25,2.95,2.57,5.05s-2.95,3.25-5.05,2.57c-.25-.08-.49-.19-.72-.32,1.05-.14,1.98-.85,2.32-1.92Z"/></g><g><path class="cls-10" d="M14.29,75.53l-7.14-14.59c-.36-.84-1.32-1.23-2.16-.87l-.87,.37c-.84,.36-1.23,1.32-.87,2.16l7.33,15.53"/><path class="cls-10" d="M10.58,78.12H26.6c.91,0,1.65-.74,1.65-1.65v-.94c0-.91-.74-1.65-1.65-1.65H10.58"/><circle class="cls-6" cx="27.59" cy="75.53" r="4.01"/><path class="cls-6" d="M2.41,59.3c1.45,.58,3.1-.12,3.68-1.57,.28-.7,.26-1.44,0-2.09,1.63,1,2.36,3.06,1.62,4.9-.83,2.05-3.16,3.05-5.21,2.22s-3.05-3.16-2.22-5.21c.1-.25,.22-.48,.36-.69,.07,1.05,.72,2.03,1.76,2.45Z"/></g><polygon class="cls-1" points="31.56 118.75 57.59 118.75 31.56 94.23 31.56 118.75"/><rect class="cls-9" x="56.11" y="91.02" width="8.63" height="23.57"/><rect class="cls-14" x="42.77" y="97.72" width="5.34" height="16.02" rx="1.33" ry="1.33" transform="translate(-60.3 151.17) rotate(-90)"/><g><line class="cls-7" x1="33.56" y1="40.34" x2="37.8" y2="40.34"/><line class="cls-7" x1="60.85" y1="40.27" x2="65.13" y2="40.27"/><path class="cls-7" d="M47.15,60.97s1.09,1.07,2.16,1.07,3.37-2.44,3.37-2.44"/><path class="cls-7" d="M59.79,48.27s.94-1.65,3.37-1.65,3.53,1.65,3.53,1.65"/><g><circle class="cls-4" cx="36.27" cy="48.56" r="4.71"/><circle class="cls-11" cx="36.27" cy="48.56" r="3.33"/><circle class="cls-4" cx="37.51" cy="47.16" r=".97"/><circle class="cls-13" cx="36.54" cy="48.36" r=".48"/></g></g></g></g></svg>