<?xml version="1.0" encoding="UTF-8" standalone="no"?>
<!-- Created with Inkscape (http://www.inkscape.org/) -->

<svg
   version="1.1"
   id="svg2"
   xml:space="preserve"
   width="284.77332"
   height="265.49332"
   viewBox="0 0 284.77332 265.49332"
   xmlns="http://www.w3.org/2000/svg"
   xmlns:svg="http://www.w3.org/2000/svg"><defs
     id="defs6" /><g
     id="g8"
     transform="matrix(1.3333333,0,0,-1.3333333,0,265.49333)"><g
       id="g10"
       transform="scale(0.1)"><path
         d="M 1104.7,968.832 H 199.613 V 1873.91 H 1104.7 V 968.832"
         style="fill:#58bded;fill-opacity:1;fill-rule:evenodd;stroke:none"
         id="path12" /><path
         d="m 1948.11,1096.7 c 0,-385.04 -312.14,-697.18 -697.18,-697.18 -385.047,0 -697.188,312.14 -697.188,697.18 0,385.05 312.141,697.19 697.188,697.19 385.04,0 697.18,-312.14 697.18,-697.19"
         style="fill:#ec047c;fill-opacity:1;fill-rule:evenodd;stroke:none"
         id="path14" /><path
         d="M 1539.55,706.488 H 359.238 V 217.309 H 1539.55 v 489.179"
         style="fill:#eded0b;fill-opacity:1;fill-rule:evenodd;stroke:none"
         id="path16" /><path
         d="m 1104.7,1059.08 h 864.96 l -864.96,814.83 z"
         style="fill:#412b6f;fill-opacity:1;fill-rule:evenodd;stroke:none"
         id="path18" /><path
         d="m 2135.81,638.09 c 0,352.398 -285.68,638.08 -638.08,638.08 -352.4,0 -638.078,-285.682 -638.078,-638.08 C 859.652,285.68 1145.33,0 1497.73,0 c 352.4,0 638.08,285.68 638.08,638.09"
         style="fill:#006d31;fill-opacity:1;fill-rule:evenodd;stroke:none"
         id="path20" /><path
         d="M 803.512,619.07 C 803.512,397.191 623.641,217.309 401.758,217.309 179.871,217.309 0,397.191 0,619.07 c 0,221.879 179.871,401.75 401.758,401.75 221.883,0 401.754,-179.871 401.754,-401.75"
         style="fill:#232559;fill-opacity:1;fill-rule:evenodd;stroke:none"
         id="path22" /><path
         d="M 21.0703,548.531 2094.78,820.371"
         style="fill:none;stroke:#1db3ad;stroke-width:26.568;stroke-linecap:round;stroke-linejoin:miter;stroke-miterlimit:10;stroke-dasharray:none;stroke-opacity:1"
         id="path24" /><path
         d="M 144.492,322.809 1725.16,1594.91"
         style="fill:#d5115c;fill-opacity:1;fill-rule:nonzero;stroke:none"
         id="path26" /><path
         d="M 144.492,322.809 1725.16,1594.91"
         style="fill:none;stroke:#facf07;stroke-width:18.72;stroke-linecap:round;stroke-linejoin:miter;stroke-miterlimit:10;stroke-dasharray:none;stroke-opacity:1"
         id="path28" /><path
         d="m 643.152,603.359 c 0,78.403 -63.554,141.961 -141.957,141.961 -78.398,0 -141.957,-63.558 -141.957,-141.961 0,-78.398 63.559,-141.961 141.957,-141.961 78.403,0 141.957,63.563 141.957,141.961 z"
         style="fill:none;stroke:#ea1a2d;stroke-width:103.968;stroke-linecap:butt;stroke-linejoin:miter;stroke-miterlimit:10;stroke-dasharray:none;stroke-opacity:1"
         id="path30" /><path
         d="m 1289.68,1978.11 c 4.89,9.19 10.35,12.85 17.23,13.07 9.04,0.29 16.11,-5.64 16.42,-15.48 l 3.38,-105.33 c 0.36,-10.86 -6.74,-17.86 -16.21,-18.16 -9.45,-0.3 -16.98,6.23 -17.33,17.09 l -0.49,15.37 c -0.34,10.45 0.16,21.96 1.01,35.72 -6,-14.14 -11.49,-24.57 -16.98,-34.59 -4.88,-8.77 -10.14,-12.43 -17.24,-12.65 -7.09,-0.23 -12.58,3.08 -18.01,11.53 -6.12,9.64 -12.26,19.71 -19.15,33.43 1.73,-13.68 2.96,-25.13 3.29,-35.58 l 0.49,-15.37 c 0.35,-10.86 -6.74,-17.86 -16.2,-18.16 -9.47,-0.3 -16.98,6.22 -17.34,17.09 l -3.38,105.33 c -0.31,9.83 6.37,16.2 15.41,16.49 6.88,0.22 12.58,-3.09 18.03,-11.93 l 35.35,-55.49 31.72,57.62"
         style="fill:#393536;fill-opacity:1;fill-rule:nonzero;stroke:none"
         id="path32" /><path
         d="m 1415.35,1924.67 c -5.9,-11.18 -11.75,-20.9 -18.92,-31.83 l 24.5,-4.78 c -2.75,12.86 -4.31,24.03 -5.58,36.61 z m -35.58,-56.58 -7.3,-10.48 c -4.84,-6.79 -10.03,-11 -18.9,-9.26 -9.51,1.85 -14.67,9.12 -12.99,17.78 0.56,2.82 1.97,6.72 4.42,10.21 l 61.11,89.82 c 5.53,8.11 11.64,11.31 19.24,9.82 7.59,-1.48 12.05,-6.73 14.13,-16.33 l 22.93,-106.21 c 0.94,-4.16 0.79,-8.3 0.24,-11.12 -1.68,-8.66 -9.2,-13.46 -18.7,-11.61 -8.88,1.74 -12.12,7.59 -14.04,15.7 l -3.04,12.5 -47.1,9.18"
         style="fill:#393536;fill-opacity:1;fill-rule:nonzero;stroke:none"
         id="path34" /><path
         d="m 1523.28,1822.41 c -3.62,-10.24 -12.77,-14.19 -21.68,-11.04 -8.93,3.15 -13.58,11.96 -9.96,22.21 l 29.33,83.13 -20.28,7.16 c -10.54,3.72 -14.79,12.38 -11.85,20.7 2.93,8.31 11.67,12.4 22.21,8.68 l 72.21,-25.48 c 10.53,-3.72 14.77,-12.39 11.83,-20.7 -2.93,-8.31 -11.66,-12.4 -22.2,-8.68 l -20.29,7.16 -29.32,-83.14"
         style="fill:#393536;fill-opacity:1;fill-rule:nonzero;stroke:none"
         id="path36" /><path
         d="m 1610.09,1826.32 -17.54,-33.62 c -5.02,-9.63 -14.63,-12.25 -23.01,-7.87 -8.39,4.38 -11.75,13.76 -6.73,23.38 l 47.95,91.97 c 5.02,9.63 14.63,12.24 23.02,7.87 8.39,-4.39 11.75,-13.76 6.72,-23.39 l -16.38,-31.45 40.24,-20.98 16.4,31.43 c 5.02,9.63 14.63,12.25 23.02,7.87 8.39,-4.38 11.75,-13.75 6.72,-23.39 l -47.95,-91.96 c -5.02,-9.63 -14.63,-12.24 -23.01,-7.86 -8.39,4.38 -11.75,13.75 -6.73,23.39 l 17.53,33.61 -40.25,21"
         style="fill:#393536;fill-opacity:1;fill-rule:nonzero;stroke:none"
         id="path38" /><path
         d="m 1852.25,1702.8 29.95,16.93 c 9.59,5.53 16.21,4.96 22.4,-0.38 7.48,-6.47 8.44,-14.58 2.02,-22.04 -1.74,-2.01 -4.34,-4.37 -7.29,-6.15 l -92.5,-52.56 c -8.33,-4.71 -15.7,-4.04 -21.56,1.02 -5.88,5.06 -7.63,12.26 -4.02,21.05 l 13.65,33.95 c 3.1,7.88 7.11,17.14 12.26,28.39 -10.37,-6.75 -18.94,-12.08 -26.27,-16.3 l -31.58,-18.5 c -8.17,-4.86 -15.55,-4.18 -21.4,0.88 -5.88,5.05 -7.63,12.25 -4.18,21.19 l 38.37,99.2 c 1.33,3.2 3.29,6.11 5.02,8.13 6.43,7.45 14.6,7.71 22.09,1.24 6.2,-5.34 7.74,-11.81 3.68,-22.11 l -12.35,-32.1 c -3.06,-8.18 -6.78,-17.43 -11.93,-28.68 10.2,6.9 18.94,12.09 26.28,16.31 l 30.45,17.84 c 8.46,4.88 15.7,4.05 21.57,-1.01 5.86,-5.06 7.75,-12.1 4.18,-21.19 l -13.18,-32.74 c -3.1,-7.88 -6.95,-17.28 -12.27,-28.39 10.37,6.75 18.97,11.78 26.61,16.02"
         style="fill:#393536;fill-opacity:1;fill-rule:nonzero;stroke:none"
         id="path40" /><path
         d="m 1932.14,1574.44 c 16.86,13.04 23.15,33.4 10.63,49.57 -12.5,16.16 -33.79,15.19 -50.67,2.15 -16.87,-13.05 -23.14,-33.4 -10.64,-49.57 12.52,-16.16 33.81,-15.2 50.68,-2.15 z m -60.84,78.6 c 30,23.2 70.45,23.21 96.14,-9.97 25.66,-33.18 15.5,-72.31 -14.5,-95.51 -30.02,-23.2 -70.44,-23.2 -96.13,9.97 -25.68,33.18 -15.53,72.31 14.49,95.51"
         style="fill:#393536;fill-opacity:1;fill-rule:nonzero;stroke:none"
         id="path42" /><path
         d="m 1993.35,1483.54 c 5.26,-10.35 13.07,-14.83 22.02,-10.27 8.94,4.55 9.92,13.49 4.64,23.84 l -8.67,17.05 -26.66,-13.56 z m -60.54,-9.33 c -9.69,-4.93 -19.03,-1.48 -23.32,6.95 -4.3,8.44 -1.58,18.02 8.1,22.95 l 92.05,46.83 c 8.6,4.36 17.27,1.31 21.86,-7.7 l 16.39,-32.2 c 14.61,-28.75 7.91,-55.33 -16.39,-67.68 -14.98,-7.62 -29.9,-6.29 -42.81,2.35 l -14.57,-26.96 c -2.39,-4.35 -4.95,-8.79 -10.61,-11.67 -7.5,-3.81 -15.6,-1.43 -20.1,7.39 -4.18,8.24 -1.48,14.68 2.95,22.24 l 19.85,34.22 -8.21,16.1 -25.19,-12.82"
         style="fill:#393536;fill-opacity:1;fill-rule:nonzero;stroke:none"
         id="path44" /><path
         d="m 2007.44,1327.76 c 3.32,-10.69 -1.1,-19.27 -9.52,-21.9 -8.41,-2.62 -16.91,1.94 -20.23,12.62 l -18.16,58.32 c -2.95,9.45 1.27,17.98 10.29,20.79 l 98.65,30.76 c 10.39,3.24 19.03,-1.74 21.84,-10.78 2.81,-9.03 -1.49,-18.03 -11.86,-21.26 l -84.18,-26.25 13.17,-42.3"
         style="fill:#393536;fill-opacity:1;fill-rule:nonzero;stroke:none"
         id="path46" /><path
         d="m 2021.36,1251.24 c 2.74,-21.77 15.39,-32.1 40.22,-28.97 24.8,3.12 34.53,16.27 31.77,38.05 l -2.05,16.44 -72.01,-9.08 z m -30.99,-3.25 -4.09,32.44 c -1.25,9.82 4.42,17.47 13.77,18.66 l 102.11,12.86 c 9.36,1.18 16.72,-4.83 17.95,-14.65 l 4.08,-32.44 c 5.38,-42.7 -18.51,-71.3 -58.37,-76.32 -39.87,-5.02 -70.08,16.75 -75.45,59.45"
         style="fill:#393536;fill-opacity:1;fill-rule:nonzero;stroke:none"
         id="path48" /><path
         d="m 2023.24,1176 c 7.99,-0.37 14.1,-6.03 13.61,-16.55 -0.66,-14.61 -12.68,-12.77 -13.71,-35.54 -0.55,-11.82 2.71,-16.71 8.46,-16.97 10.45,-0.47 12.93,13.4 17.87,27.6 5.94,17.61 17.5,37.32 45.13,36.06 24.79,-1.12 39.81,-18.39 38.29,-51.69 -1.31,-28.78 -13.95,-45 -27.47,-44.39 -7.98,0.37 -13.45,6.43 -13,16.09 0.54,12.03 9.78,12.05 10.54,29.02 0.53,11.39 -3.16,16.29 -9.29,16.57 -10.04,0.45 -14.09,-11.64 -17.89,-23.3 -6.39,-18.87 -15.43,-41.71 -44.73,-40.38 -23.75,1.08 -39.41,17.72 -37.79,53.17 1.32,29.44 13.61,51.05 29.98,50.31"
         style="fill:#393536;fill-opacity:1;fill-rule:nonzero;stroke:none"
         id="path50" /><path
         d="m 1112.54,1800.11 c 15.75,-14.91 23.63,-33.43 23.63,-55.57 v -739.68 c 0,-22.161 -7.24,-40.68 -21.71,-55.571 -14.49,-14.91 -33.66,-22.359 -57.49,-22.359 -23.85,0 -43.23,7.23 -58.13,21.718 -14.906,14.473 -22.36,33.211 -22.36,56.212 V 1519.7 L 765.695,1197.76 c -8.527,-10.21 -18.324,-18.52 -29.382,-24.9 -11.079,-6.39 -22.575,-9.17 -34.489,-8.31 -11.078,-0.86 -22.156,1.92 -33.222,8.31 -11.079,6.38 -20.875,14.69 -29.383,24.9 L 428.434,1531.2 v -511.25 c -55.805,2.61 -94.743,-1.82 -146.887,-17.41 -0.016,0.76 -0.024,1.54 -0.024,2.32 v 739.68 c 0,21.27 7.86,39.6 23.629,54.93 15.754,15.33 34.696,22.99 56.848,22.99 12.777,0 25.555,-3.19 38.332,-9.58 12.777,-6.38 22.555,-14.69 29.383,-24.9 l 278.496,-427.97 286.156,427.97 c 6.803,10.21 15.973,18.52 27.463,24.9 11.5,6.39 23.2,9.58 35.14,9.58 21.27,0 39.8,-7.46 55.57,-22.35"
         style="fill:#ffffff;fill-opacity:1;fill-rule:nonzero;stroke:none"
         id="path52" /><path
         d="M 2096.09,860.109 1884.65,237.59 c -5.1,-14.488 -14.05,-25.988 -26.82,-34.5 -12.77,-8.52 -26.83,-13.211 -42.16,-14.051 -15.33,0 -29.82,4.262 -43.44,12.781 -13.63,8.5 -24.27,20.86 -31.94,37.039 L 1558.89,651.5 1376.21,238.859 c -7.67,-16.179 -18.33,-28.539 -31.94,-37.039 -13.63,-8.519 -28.11,-12.781 -43.43,-12.781 -15.34,0.84 -29.39,5.531 -42.16,14.051 -12.78,8.512 -21.73,20.012 -26.84,34.5 L 980.18,978.539 c -2.559,9.359 -3.828,17.887 -3.828,25.551 0,23.83 8.722,43.64 26.188,59.41 17.44,15.75 36.82,23.63 58.12,23.63 17.02,0 32.36,-4.47 46,-13.41 13.6,-8.95 22.99,-21.08 28.1,-36.42 l 190.35,-577.429 166.07,398.59 c 6.8,15.32 16.61,27.461 29.39,36.398 12.77,8.95 27.24,12.981 43.43,12.141 16.17,0.84 30.45,-3.191 42.79,-12.141 12.34,-8.937 21.92,-21.078 28.75,-36.398 l 157.14,-394.75 189.07,573.589 c 1.29,3.88 2.87,7.55 4.73,11.01 33.89,-40.71 78.23,-102.931 109.61,-188.201"
         style="fill:#ffffff;fill-opacity:1;fill-rule:nonzero;stroke:none"
         id="path54" /></g></g></svg>
