<?xml version="1.0" encoding="UTF-8"?><svg id="Game_Character" xmlns="http://www.w3.org/2000/svg" viewBox="0 0 571.08567 371.78783"><defs><style>.cls-1{fill:#0f206c;}.cls-1,.cls-2,.cls-3{fill-rule:evenodd;}.cls-4{fill:#fff;}.cls-5{fill:#fed103;}.cls-6{fill:#79cff0;}.cls-7{stroke:#231f20;stroke-linecap:round;stroke-width:1.368px;}.cls-7,.cls-8{fill:none;stroke-miterlimit:10;}.cls-9{fill:#483277;}.cls-2,.cls-10{fill:#35b7ea;}.cls-3,.cls-11{fill:#231f20;}.cls-12{fill:#ffd100;}.cls-8{stroke:#ed1c24;stroke-width:3.6px;}.cls-13{fill:#d1d3d4;}.cls-14{fill:#ed0a7c;}</style></defs><g id="_"><path class="cls-3" d="M261.75991,205.19738c-7.96362,0-14.41941-7.97389-14.41941-17.81019s6.45579-17.81019,14.41941-17.81019v35.62038Z"/><path class="cls-3" d="M304.67149,205.19738c7.96362,0,14.41941-7.97389,14.41941-17.81019s-6.45579-17.81019-14.41941-17.81019v35.62038Z"/><g><g><g><path class="cls-11" d="M257.09831,141.79396c-1.28857-1.07037-2.89697,.37946-3.38776,1.17426-.88239,1.42896-.96643,3.29425-.3949,3.78265s2.42133,.16626,3.65796-1.3717c.97681-1.3302,1.35211-2.56567,.12469-3.58521Zm-.17474,3.547c-1.19696,1.48871-2.98743,1.80054-3.54071,1.32776-.55322-.47278-.4718-2.27826,.38226-3.66138,.47504-.76935,2.03186-2.17273,3.27917-1.13666,1.18805,.98682,.82483,2.18274-.12073,3.47028Z"/><path class="cls-11" d="M258.53203,143.05391c-1.14032-1.22711-2.92175,.00397-3.51062,.72906-1.05872,1.30365-1.3819,3.1427-.87787,3.7005,.50403,.55786,2.37988,.4762,3.80396-.89008,1.13971-1.1936,1.67072-2.37061,.58453-3.53949Zm-.62921,3.49518c-1.37848,1.32245-3.19415,1.40155-3.68201,.86157-.48792-.53998-.17511-2.32001,.84973-3.58191,.57001-.70184,2.29431-1.89343,3.39807-.70569,1.05133,1.13141,.53735,2.27069-.5658,3.42603Z"/><path class="cls-11" d="M259.9257,144.40608c-.9765-1.36108-2.89893-.36438-3.57446,.28076-1.2146,1.15979-1.76703,2.94342-1.33734,3.5603,.42975,.61694,2.3009,.77234,3.8858-.40356,1.28107-1.04034,1.95618-2.14111,1.026-3.4375Zm-1.06476,3.38794c-1.53412,1.13818-3.34528,.98779-3.76123,.39063-.41589-.59717,.11877-2.32355,1.29443-3.44623,.65393-.62445,2.51471-1.58917,3.4599-.27173,.90039,1.25488,.24695,2.32031-.9931,3.32733Z"/><path class="cls-11" d="M261.04369,145.98348c-.76874-1.48834-2.81537-.78107-3.57739-.24078-1.37,.97131-2.17529,2.65588-1.83966,3.32861,.33563,.67279,2.16449,1.09796,3.90326,.16449,1.41846-.84357,2.24603-1.83472,1.51379-3.25232Zm-1.54498,3.19763c-1.68304,.90356-3.45325,.492-3.77814-.15918s.45459-2.28174,1.7807-3.22198c.73761-.52295,2.71863-1.20758,3.46277,.23309,.70874,1.37219-.09235,2.33154-1.46533,3.14807Z"/><path class="cls-11" d="M261.99351,147.88734c-.46637-1.60895-2.61115-1.31091-3.46326-.92822-1.53204,.68805-2.64795,2.18506-2.44879,2.90997,.19922,.72498,1.91125,1.49591,3.79773,.91632,1.55481-.55322,2.55853-1.36554,2.11432-2.89807Zm-2.13434,2.83838c-1.82599,.56104-3.48315-.18518-3.67596-.8869s.88733-2.15076,2.37024-2.81671c.82483-.37042,2.90088-.65894,3.35229,.89844,.42999,1.4834-.54156,2.26971-2.04657,2.80518Z"/><path class="cls-11" d="M262.38634,149.53474c-.38849-1.62946-2.54517-1.43481-3.41467-1.09351-1.56329,.61359-2.74988,2.05524-2.58575,2.78894s1.83716,1.586,3.74927,1.09772c1.57965-.47791,2.62122-1.24103,2.25116-2.79315Zm-2.26825,2.7326c-1.85083,.4726-3.47028-.35236-3.62909-1.06256-.15887-.71014,.98962-2.10559,2.50287-2.69952,.84167-.33038,2.92914-.5188,3.30524,1.05847,.35815,1.50232-.65002,2.24103-2.17902,2.70361Z"/><path class="cls-11" d="M262.92277,151.35048c-.1908-1.66425-2.35522-1.729-3.25934-1.4942-1.62549,.42212-2.97601,1.71149-2.90088,2.45953,.0752,.74805,1.63422,1.79437,3.59106,1.53839,1.62543-.28546,2.75085-.91852,2.56915-2.50372Zm-2.57892,2.44159c-1.8941,.24774-3.40314-.76508-3.47589-1.48914s1.2345-1.97211,2.80786-2.38068c.87512-.22729,2.97021-.16461,3.15485,1.44629,.1759,1.53442-.91345,2.14722-2.48682,2.42352Z"/><path class="cls-11" d="M260.00737,151.29146c-1.65265,.29877-3.09631,1.48291-3.07758,2.2345s1.49469,1.91217,3.46521,1.80408c1.64227-.16248,2.81213-.70911,2.75012-2.30353-.06512-1.67389-2.21857-1.90118-3.13776-1.73505Zm.38263,3.97583c-1.90741,.10468-3.33606-1.01874-3.35419-1.74622-.01807-.72748,1.37927-1.87372,2.97894-2.1629,.88977-.16083,2.97418,.0592,3.03717,1.67944,.06006,1.54327-1.07227,2.07245-2.66193,2.22968Z"/><path class="cls-11" d="M260.11339,152.82015c-1.65259,.29877-3.09625,1.48291-3.07758,2.2345,.01874,.75159,1.49469,1.91217,3.46521,1.80408,1.64233-.16248,2.81213-.70911,2.75012-2.30353-.06506-1.67389-2.21851-1.90118-3.13776-1.73505Zm.38263,3.97583c-1.90741,.10468-3.336-1.01874-3.35413-1.74622s1.37927-1.87372,2.97888-2.1629c.88977-.16083,2.97418,.0592,3.03723,1.67944,.06,1.54327-1.07233,2.07245-2.66199,2.22968Z"/><path class="cls-11" d="M260.26579,154.26149c-1.66406,.22662-3.15784,1.34686-3.17181,2.09857s1.41016,1.97534,3.38354,1.953c1.64783-.09094,2.84027-.58618,2.84766-2.18176,.00769-1.67517-2.13379-1.99591-3.05939-1.86981Zm.20941,3.98865c-1.9101,.02167-3.28857-1.16278-3.27502-1.89038,.01349-.7276,1.45941-1.81195,3.07013-2.03131,.89587-.12201,2.96875,.18842,2.9613,1.80988-.00714,1.54443-1.16138,2.02386-2.75641,2.11182Z"/><path class="cls-11" d="M260.27208,155.76833c-1.66406,.22662-3.15784,1.34686-3.17181,2.09857s1.41016,1.97534,3.38354,1.953c1.64783-.09094,2.84027-.58624,2.84766-2.18182,.00775-1.67511-2.13379-1.99585-3.05939-1.86975Zm.20941,3.98865c-1.9101,.02167-3.28857-1.16278-3.27502-1.89038,.01349-.7276,1.45941-1.81195,3.07013-2.03131,.89587-.12201,2.96875,.18842,2.9613,1.80988-.00714,1.54443-1.16138,2.02386-2.75641,2.11182Z"/><path class="cls-11" d="M260.26579,157.23708c-1.66406,.22662-3.15784,1.34686-3.17181,2.09857s1.41016,1.97534,3.38354,1.953c1.64783-.09094,2.84027-.58624,2.84766-2.18176,.00769-1.67517-2.13379-1.99591-3.05939-1.86981Zm.20941,3.98865c-1.9101,.02167-3.28857-1.16278-3.27502-1.89038,.01349-.7276,1.45941-1.81195,3.07013-2.03131,.89587-.12201,2.96875,.18842,2.9613,1.80988-.00714,1.54443-1.16138,2.02386-2.75641,2.11182Z"/><path class="cls-11" d="M260.20726,158.68117c-1.66406,.22662-3.15784,1.34692-3.17181,2.09863-.01398,.75165,1.4101,1.97534,3.38348,1.95294,1.64783-.09088,2.84033-.58618,2.84766-2.18176,.00775-1.67511-2.13379-1.99585-3.05933-1.86981Zm.20941,3.98871c-1.91016,.02167-3.28864-1.16278-3.27509-1.89038s1.45941-1.81195,3.07013-2.03131c.89594-.12201,2.96881,.18842,2.9613,1.80988-.00714,1.54443-1.16138,2.02386-2.75635,2.11182Z"/><path class="cls-11" d="M260.26579,160.25142c-1.66406,.22662-3.15784,1.34692-3.17181,2.09857-.01398,.75171,1.41016,1.97534,3.38354,1.953,1.64783-.09088,2.84027-.58618,2.84766-2.18176,.00769-1.67517-2.13379-1.99585-3.05939-1.86981Zm.20941,3.98865c-1.9101,.02167-3.28857-1.16278-3.27502-1.89038,.01349-.72754,1.45941-1.81195,3.07013-2.03131,.89587-.12201,2.96875,.18842,2.9613,1.80988-.00714,1.54443-1.16138,2.02386-2.75641,2.11182Z"/><path class="cls-11" d="M259.95415,161.93416c-1.64783,.09088-2.84027,.58618-2.84766,2.18176-.00769,1.67517,2.13379,1.99585,3.05939,1.86981,1.66406-.22662,3.15784-1.34692,3.17181-2.09857,.01398-.75171-1.41016-1.97534-3.38354-1.953Zm.20721,3.98462c-.89587,.12201-2.96875-.18848-2.9613-1.80988,.00714-1.54443,1.16138-2.02386,2.75641-2.11188,1.9101-.02161,3.28857,1.16278,3.27502,1.89038-.01349,.7276-1.45941,1.81201-3.07013,2.03137Z"/><path class="cls-11" d="M259.71074,163.36311c-1.5907,.4397-2.65033,1.17755-2.31781,2.7381,.34912,1.63837,2.50983,1.49579,3.38733,1.17554,1.57764-.57574,2.79865-1.9884,2.65222-2.72583-.14636-.73743-1.7984-1.62982-3.72174-1.18781Zm1.0509,3.84912c-.84943,.31-2.94086,.44806-3.27881-1.13782-.32184-1.51056,.70386-2.22473,2.24353-2.65033,1.86169-.42786,3.46075,.43591,3.60248,1.14972,.14166,.71381-1.04016,2.08118-2.5672,2.63843Z"/><path class="cls-11" d="M263.83586,165.39259c-.28925-.69397-2.08502-1.24225-3.88312-.42889-1.47241,.7453-2.36542,1.67798-1.73108,3.14209,.66602,1.53705,2.75592,.97028,3.55286,.48297,1.4328-.8761,2.35052-2.5022,2.06134-3.19617Zm-2.09235,3.13666c-.77142,.47168-2.79431,1.02026-3.43896-.46753-.61401-1.41718,.25037-2.31995,1.6756-3.04138,1.74042-.78729,3.47864-.25653,3.75861,.41516,.27997,.67175-.6084,2.24567-1.99524,3.09375Z"/><path class="cls-11" d="M264.39629,166.1631c-.42761-.61841-2.29822-.78009-3.88715,.39044-1.28455,1.03607-1.96338,2.13446-1.0376,3.43402,.97198,1.36438,2.89771,.37415,3.57544-.26868,1.21851-1.1557,1.77692-2.93744,1.3493-3.55579Zm-1.39203,3.50403c-.65607,.62225-2.52008,1.58075-3.46082,.26007-.89612-1.25787-.23907-2.32111,1.00433-3.32397,1.53796-1.133,3.34863-.97644,3.76251-.37793,.41394,.59857-.12659,2.32318-1.30603,3.44183Z"/><path class="cls-11" d="M265.08672,166.98854c-.50238-.55933-2.37842-.48315-3.80652,.87891-1.14325,1.19025-1.67767,2.36566-.59491,3.53772,1.13666,1.23047,2.92169,.00464,3.5127-.71875,1.06256-1.30054,1.39111-3.13855,.88873-3.69788Zm-.93768,3.65198c-.57208,.7002-2.29987,1.88672-3.40015,.69568-1.04797-1.13446-.5307-2.27222,.57587-3.42432,1.38232-1.31842,3.19824-1.39215,3.68457-.85077,.48627,.54138,.16821,2.32056-.86029,3.57941Z"/><path class="cls-11" d="M265.92174,167.5992c-.58466-.47272-2.42493-.1004-3.61932,1.47064-.94031,1.35626-1.28186,2.6015-.02722,3.58728,1.31726,1.03497,2.88562-.45807,3.35461-1.26593,.8432-1.45239,.87653-3.31927,.29193-3.79199Zm-.34753,3.75439c-.45398,.78192-1.97211,2.22711-3.24707,1.22534-1.21448-.95416-.88385-2.15955,.02631-3.47229,1.15613-1.52069,2.93744-1.88104,3.5033-1.42352,.56592,.45758,.53363,2.26465-.28253,3.67047Z"/><path class="cls-11" d="M266.87364,168.14723c-.64789-.38147-2.41327,.25787-3.36328,1.98767-.73029,1.47992-.8847,2.7619,.50146,3.55219,1.45526,.82965,2.78662-.87811,3.13153-1.74622,.62012-1.56073,.37817-3.41217-.26971-3.79364Zm.20917,3.76465c-.3338,.84027-1.62256,2.49329-3.03119,1.69019-1.34167-.76489-1.19226-2.0058-.48535-3.43829,.91956-1.67438,2.62836-2.29315,3.25549-1.92395,.62708,.36926,.86127,2.16132,.26105,3.67206Z"/><path class="cls-11" d="M268.08726,168.70589c-.66956-.34198-2.39355,.40192-3.23816,2.18549-.64038,1.52106-.71777,2.80994,.71326,3.51575,1.50232,.74103,2.72906-1.0434,3.02136-1.9306,.52545-1.59509,.1731-3.42871-.49646-3.77063Zm.43427,3.74536c-.2829,.85876-1.47034,2.58594-2.9245,1.86871-1.38513-.68323-1.31024-1.93085-.69043-3.40308,.81763-1.72644,2.48633-2.44647,3.1344-2.11548s.9892,2.10583,.48053,3.64984Z"/><path class="cls-11" d="M269.19975,169.05776c-.70056-.27295-2.341,.64044-3.00214,2.49988-.48431,1.5777-.4317,2.86786,1.06293,3.42627,1.56921,.5863,2.61041-1.31238,2.81207-2.22449,.36255-1.63977-.17236-3.42871-.87286-3.70166Zm.80847,3.68274c-.19519,.88287-1.203,2.72064-2.72192,2.1532-1.44678-.54053-1.49768-1.78937-1.02887-3.31647,.63989-1.79987,2.22784-2.68396,2.90588-2.41974,.6781,.26416,1.1958,1.99573,.84491,3.58301Z"/></g><g><path class="cls-11" d="M318.15739,149.15437c-1.49554-.76404-3.36157-.69714-3.80219-.08795-.44067,.60913,.02991,2.42682,1.66284,3.53516,1.40472,.86615,2.66656,1.14032,3.58356-.16547,.96271-1.37085-.61237-2.85681-1.44421-3.28174Zm1.36334,3.23413c-.88757,1.26392-2.10895,.99847-3.46869,.1601-1.58057-1.07275-2.03607-2.83221-1.60956-3.42181,.42651-.58966,2.23273-.65442,3.68036,.08508,.80518,.41138,2.32977,1.84967,1.39789,3.17664Z"/><path class="cls-11" d="M317.52849,150.55531c-1.3689-.9729-3.22485-1.17743-3.74921-.63861-.52435,.53876-.32245,2.40552,1.13239,3.73895,1.26422,1.06079,2.4729,1.51514,3.56964,.35626,1.15143-1.21674-.19141-2.91547-.95282-3.4566Zm.87976,3.39771c-1.06158,1.12177-2.23151,.68201-3.45526-.34479-1.4082-1.29071-1.60358-3.0976-1.09607-3.61914,.50757-.52148,2.30402-.32355,3.62903,.61816,.737,.52374,2.0368,2.16809,.9223,3.34576Z"/><path class="cls-11" d="M316.73112,151.96101c-1.15491-1.2193-2.93628-1.77893-3.55493-1.35175s-.78162,2.29767,.38782,3.88739c1.03516,1.28528,2.13312,1.96484,3.43335,1.03992,1.36499-.97101,.3761-2.8974-.26624-3.57556Zm.20587,3.50366c-1.25848,.89526-2.32129,.23749-3.32324-1.00659-1.13196-1.53876-.97418-3.3493-.37537-3.76282,.59882-.41345,2.32306,.12823,3.44092,1.30841,.62177,.65649,1.57898,2.52112,.25769,3.461Z"/><path class="cls-11" d="M315.47758,152.86659c-1.09497-1.27338-2.84735-1.91791-3.48584-1.521-.63843,.39697-.89111,2.25751,.20056,3.90155,.97223,1.33356,2.03625,2.06506,3.37939,1.20374,1.4101-.9043,.51495-2.87598-.09412-3.58429Zm.03735,3.50958c-1.30011,.83374-2.33002,.12567-3.27112-1.16516-1.0567-1.59131-.81213-3.39221-.19409-3.77649,.61798-.38422,2.31421,.23969,3.37408,1.47229,.58954,.68555,1.45599,2.59406,.09113,3.46936Z"/><path class="cls-11" d="M314.36998,153.98647c-.93475-1.39526-2.59741-2.24487-3.27881-1.92712s-1.15485,2.13464-.2677,3.89752c.80573,1.44031,1.7746,2.29382,3.21112,1.59937,1.50818-.72906,.85529-2.7937,.33539-3.56976Zm-.38281,3.48883c-1.3905,.67218-2.32831-.15399-3.10822-1.54816-.8587-1.70636-.40045-3.46503,.25909-3.77258s2.26898,.51483,3.17377,1.86536c.50323,.75116,1.13519,2.74963-.32465,3.45538Z"/><path class="cls-11" d="M313.12852,154.78456c-.82715-1.46155-2.42126-2.43372-3.12463-2.16815-.70331,.26563-1.31207,2.04181-.55994,3.86639,.69513,1.49677,1.59711,2.42078,3.08179,1.83624,1.55872-.61365,1.06293-2.7215,.60278-3.53448Zm-.64404,3.4502c-1.43707,.5658-2.31012-.32861-2.98297-1.7774-.72803-1.76611-.13879-3.48535,.54199-3.74243s2.22382,.68396,3.02448,2.09863c.44537,.78693,.92529,2.82721-.5835,3.4212Z"/><path class="cls-11" d="M311.72044,155.38899c-.82721-1.46155-2.42133-2.43378-3.12469-2.16815-.70331,.26556-1.31201,2.04175-.55994,3.86633,.69513,1.49677,1.59711,2.42078,3.08179,1.8363,1.55872-.61365,1.06293-2.72156,.60284-3.53448Zm-.64404,3.45013c-1.43713,.5658-2.31018-.32861-2.98303-1.7774-.72797-1.76605-.13879-3.48535,.54199-3.74243s2.22382,.68396,3.02454,2.09869c.44531,.78687,.92523,2.82721-.5835,3.42114Z"/><path class="cls-11" d="M310.41008,156.00832c-.76288-1.49615-2.31323-2.53674-3.02747-2.30194-.71423,.23474-1.3996,1.98279-.72748,3.83832,.62939,1.52563,1.49036,2.48792,2.99902,1.96857,1.58392-.54535,1.18024-2.67279,.75592-3.50494Zm-.79346,3.41888c-1.46033,.50275-2.29364-.42871-2.90289-1.9054-.65051-1.79608,.01288-3.4881,.70416-3.71533,.69135-.22723,2.19202,.77997,2.93042,2.22815,.41071,.80554,.80145,2.86481-.73169,3.39258Z"/><path class="cls-11" d="M308.98967,156.51131c-.76288-1.49615-2.31323-2.53668-3.02747-2.30194-.71417,.2348-1.39954,1.98285-.72748,3.83838,.62939,1.52557,1.49036,2.48792,2.99902,1.96851,1.58392-.54529,1.18024-2.67273,.75592-3.50494Zm-.79346,3.41895c-1.46033,.50275-2.29364-.42877-2.90289-1.90546-.65051-1.79602,.01288-3.48804,.70422-3.71533,.69128-.22723,2.19196,.78003,2.93036,2.22821,.41077,.80548,.80151,2.86475-.73169,3.39258Z"/><path class="cls-11" d="M307.60106,156.98988c-.76288-1.49615-2.31323-2.53668-3.02747-2.30194-.71417,.2348-1.39954,1.98285-.72748,3.83838,.62939,1.52557,1.49036,2.48792,2.99902,1.96851,1.58392-.54529,1.18024-2.67273,.75592-3.50494Zm-.79346,3.41895c-1.46033,.50275-2.29364-.42877-2.90289-1.90546-.65051-1.79602,.01288-3.48804,.70422-3.71533,.69128-.22723,2.19196,.78003,2.93036,2.22821,.41077,.80548,.80151,2.86475-.73169,3.39258Z"/><path class="cls-11" d="M306.21843,157.41103c-.76288-1.49615-2.31323-2.53674-3.02747-2.30194-.71417,.23474-1.39954,1.98279-.72748,3.83832,.62939,1.52557,1.49036,2.48792,2.99902,1.96857,1.58392-.54535,1.18024-2.67279,.75592-3.50494Zm-.7934,3.41888c-1.46033,.50275-2.2937-.42871-2.90295-1.9054-.65051-1.79608,.01288-3.4881,.70422-3.71533,.69128-.22723,2.19196,.77997,2.93036,2.22815,.41077,.80554,.80151,2.86475-.73163,3.39258Z"/><path class="cls-11" d="M304.75542,157.98427c-.76288-1.49615-2.31317-2.53668-3.0274-2.30194-.71423,.2348-1.3996,1.98285-.72754,3.83838,.62939,1.52557,1.49036,2.48792,2.99908,1.96851,1.58392-.54529,1.18018-2.67273,.75586-3.50494Zm-.7934,3.41895c-1.46033,.50275-2.2937-.42877-2.90289-1.90546-.65057-1.79602,.01282-3.48804,.70416-3.71533,.69135-.22723,2.19196,.78003,2.93042,2.22821,.41071,.80548,.80145,2.86475-.73169,3.39258Z"/><path class="cls-11" d="M303.06407,158.24519c-.62939-1.52557-1.49036-2.48792-2.99902-1.96851-1.58392,.54529-1.18024,2.67273-.75592,3.50488,.76288,1.49615,2.31323,2.53674,3.02747,2.302,.71423-.2348,1.3996-1.98285,.72748-3.83838Zm-.76276,3.73822c-.69135,.22729-2.19202-.77997-2.93042-2.22815-.41071-.80548-.80145-2.86475,.73169-3.39258,1.46033-.50275,2.29364,.42871,2.90289,1.90546,.65051,1.79602-.01288,3.48804-.70416,3.71527Z"/><path class="cls-11" d="M301.63475,158.48677c-.93976-1.35657-1.9859-2.11353-3.34937-1.28479-1.43152,.87006-.58411,2.86273,.00769,3.58551,1.06396,1.29938,2.80029,1.98602,3.44818,1.60455,.64783-.38147,.94531-2.23535-.10651-3.90527Zm.05072,3.81494c-.62714,.36926-2.3078-.29535-3.33765-1.5531-.57281-.69958-1.39307-2.62842-.00751-3.47058,1.31982-.80219,2.3324-.06946,3.24207,1.24365,1.01807,1.61633,.73016,3.41083,.10309,3.78003Z"/><path class="cls-11" d="M300.20366,159.24324c-1.18933-1.1441-2.36438-1.67944-3.53723-.5976-1.23132,1.13574-.0069,2.92169,.71606,3.51324,1.29974,1.06354,3.13751,1.39355,3.6972,.8916s.48499-2.37811-.87604-3.80725Zm.80353,3.72974c-.54175,.48584-2.32068,.16644-3.57874-.86298-.69977-.57263-1.88501-2.30133-.69312-3.4007,1.13525-1.04712,2.27264-.52899,3.42389,.57849,1.31738,1.3833,1.38971,3.19928,.84796,3.68518Z"/><path class="cls-11" d="M298.8864,160.29298c-1.40186-.87091-2.66272-1.14935-3.58411,.15332-.96741,1.36761,.60266,2.85889,1.43311,3.28662,1.49298,.7691,3.35919,.70844,3.80188,.10083,.44269-.60767-.02173-2.42694-1.65088-3.54077Zm1.56372,3.4801c-.42847,.58813-2.23486,.64685-3.67999-.09753-.80377-.41406-2.32355-1.85754-1.38715-3.18134,.89185-1.26093,2.1123-.99139,3.46918-.14838,1.57697,1.07813,2.02649,2.83905,1.59796,3.42725Z"/><path class="cls-11" d="M297.90031,161.4543c-1.50067-.68658-2.78662-.80334-3.53589,.60541-.78662,1.47894,.95941,2.7597,1.83728,3.07898,1.57825,.57404,3.42181,.27789,3.78406-.38086,.3623-.65881-.32849-2.40472-2.08545-3.30353Zm1.99139,3.25433c-.35065,.6377-2.13513,.92432-3.66278,.36871-.84973-.30908-2.53986-1.54877-1.77844-2.98035,.72528-1.36359,1.97003-1.25055,3.42261-.58594,1.70062,.87,2.36926,2.55994,2.01862,3.19757Z"/><path class="cls-11" d="M297.10246,162.81593c-1.59052-.44031-2.87872-.35193-3.39545,1.15771-.54248,1.5849,1.3844,2.57294,2.3017,2.74921,1.64929,.31683,3.42267-.26752,3.67603-.97534,.25342-.70782-.70514-2.32233-2.58228-2.93158Zm2.48163,2.89795c-.2453,.68512-1.96185,1.25079-3.55823,.94403-.88794-.17059-2.75299-1.12695-2.22791-2.66107,.50018-1.46118,1.74707-1.54675,3.28662-1.12054,1.81689,.58972,2.74475,2.1524,2.49951,2.83759Z"/><path class="cls-11" d="M296.49553,164.30763c-1.638-.20123-2.89917,.07593-3.18793,1.64514-.3031,1.64752,1.74823,2.341,2.68152,2.38025,1.67792,.0705,3.34589-.76868,3.49231-1.5061,.14636-.73743-1.03955-2.19312-2.9859-2.51929Zm-.49902,3.95868c-.90338-.03796-2.88898-.70923-2.59552-2.30396,.27948-1.51892,1.50024-1.78723,3.08569-1.59241,1.88403,.31567,3.03186,1.72473,2.8902,2.43854s-1.75623,1.52606-3.38037,1.45782Z"/><path class="cls-11" d="M296.22301,165.82094c-1.64709-.10278-2.8894,.24939-3.08368,1.83313-.20392,1.66272,1.88525,2.23212,2.81927,2.21533,1.67914-.03009,3.29382-.96765,3.39581-1.71252,.10193-.74487-1.16901-2.12695-3.13141-2.33594Zm-.26105,3.98145c-.90405,.01624-2.92627-.53491-2.72888-2.14435,.18805-1.53296,1.3905-1.87384,2.98486-1.77435,1.89948,.20227,3.1297,1.54004,3.03101,2.26105s-1.66168,1.62854-3.28699,1.65765Z"/><path class="cls-11" d="M296.03892,167.31374c-1.64911,.06329-2.84973,.53851-2.88385,2.13379-.03583,1.67474,2.10004,2.03131,3.02759,1.92078,1.66766-.19867,3.17999-1.29376,3.20654-2.0451s-1.37683-1.99872-3.35028-2.00946Zm.14038,3.98755c-.89783,.10699-2.96521-.23816-2.93054-1.85925,.03302-1.54413,1.19513-2.00409,2.79138-2.06537,1.91022,.01038,3.26862,1.21777,3.24292,1.94501-.02576,.72729-1.48956,1.78729-3.10376,1.97961Z"/><path class="cls-11" d="M295.94652,168.78145c-1.64026,.18201-2.80347,.74261-2.72247,2.33612,.08508,1.67303,2.24103,1.87463,3.1582,1.69751,1.64899-.31842,3.07843-1.51971,3.05072-2.271-.02765-.75128-1.51733-1.89423-3.48645-1.76263Zm.42755,3.96704c-.88776,.17145-2.97467-.02374-3.05695-1.64313-.07843-1.54248,1.04749-2.08508,2.63519-2.26123,1.90601-.12738,3.3479,.97888,3.37469,1.70612s-1.35681,1.89001-2.95294,2.19824Z"/></g></g><circle class="cls-5" cx="316.58767" cy="152.2883" r="4.70647"/><circle class="cls-14" cx="253.56031" cy="143.57434" r="4.70647"/></g><rect class="cls-13" x="252.75358" y="169.577" width="60.84242" height="35.62038" rx="8.63588" ry="8.63588"/><rect class="cls-13" x="258.45921" y="214.19946" width="50.27449" height="43.67309" rx="6.86012" ry="6.86012" transform="translate(519.63246 -47.56045) rotate(90)"/><g><path class="cls-2" d="M279.99325,296.06686h-9.32719c0-1.85047,2.08796-3.35057,4.66359-3.35057s4.66359,1.5001,4.66359,3.35057Z"/><rect class="cls-10" x="260.55756" y="275.7197" width="33.62864" height="7.06569" rx="1.19936" ry="1.19936" transform="translate(556.62442 1.88066) rotate(90)"/></g><g><path class="cls-2" d="M286.94588,296.06686h9.32719c0-1.85047-2.08796-3.35057-4.66359-3.35057s-4.66359,1.5001-4.66359,3.35057Z"/><rect class="cls-10" x="272.75293" y="275.7197" width="33.62864" height="7.06569" rx="1.19936" ry="1.19936" transform="translate(568.81979 -10.31471) rotate(90)"/></g><circle class="cls-12" cx="271.70736" cy="230.19099" r="8.28589"/><circle class="cls-8" cx="294.40985" cy="222.24615" r="4.7446"/><rect class="cls-10" x="280.74576" y="200.49079" width="5.70138" height="15.11457" rx="1.90965" ry="1.90965" transform="translate(491.64452 -75.54838) rotate(90)"/><g><path class="cls-10" d="M312.1966,225.52838l-7.47352,14.4216c-.45973,.78457-.1964,1.79328,.58817,2.25301l.81182,.4757c.78457,.45973,1.79328,.1964,2.25301-.58817l8.11184-15.13119"/><path class="cls-10" d="M316.48792,226.95932l-9.53745-12.87433c-.5413-.73068-1.57245-.88421-2.30313-.34291l-.75606,.5601c-.73068,.5413-.88421,1.57245-.34291,2.30313l9.53745,12.87433"/><circle class="cls-6" cx="304.62429" cy="214.39426" r="4.00529"/><path class="cls-6" d="M305.43753,245.15396c.48459-1.48719-.32824-3.08567-1.81548-3.57028-.71681-.23357-1.45697-.15988-2.08813,.1396,.89099-1.69737,2.89218-2.56225,4.77613-1.94837,2.10308,.68528,3.2525,2.94582,2.56719,5.04902s-2.94588,3.25268-5.04896,2.5674c-.25348-.0826-.49156-.19041-.71573-.31571,1.04686-.13867,1.97595-.85051,2.32499-1.92166Z"/></g><g><path class="cls-10" d="M248.51533,214.39423l-7.13947-14.58986c-.35676-.83644-1.32404-1.22529-2.16048-.86852l-.86548,.36915c-.83644,.35676-1.22529,1.32404-.86852,2.16048l7.32968,15.52516"/><path class="cls-10" d="M244.81106,216.99064h16.02221c.90934,0,1.64651-.73717,1.64651-1.64651v-.94092c0-.90934-.73717-1.64651-1.64651-1.64651h-16.02221"/><circle class="cls-6" cx="261.82208" cy="214.39423" r="4.00529"/><path class="cls-6" d="M236.64346,198.16949c1.45108,.58389,3.10079-.11918,3.6847-1.57031,.28143-.69941,.25787-1.44285,.00168-2.09279,1.63334,1.00355,2.36116,3.05855,1.6215,4.89677-.82569,2.05202-3.15868,3.04621-5.21081,2.22048s-3.04638-3.15874-2.22069-5.21077c.09952-.24733,.22316-.47759,.3633-.69278,.06768,1.05384,.71517,2.02886,1.76032,2.44941Z"/></g><polygon class="cls-1" points="265.78836 257.61874 291.81883 257.61875 265.78836 233.09676 265.78836 257.61874"/><rect class="cls-9" x="290.34003" y="229.88684" width="8.62603" height="23.57282"/><rect class="cls-14" x="276.99532" y="236.58947" width="5.33987" height="16.02293" rx="1.32936" ry="1.32936" transform="translate(35.06432 524.26619) rotate(-90)"/><g><line class="cls-7" x1="267.79145" y1="179.20807" x2="272.03115" y2="179.20807"/><line class="cls-7" x1="295.07889" y1="179.13887" x2="299.35901" y2="179.13887"/><path class="cls-7" d="M281.37714,199.83976s1.09413,1.0675,2.16103,1.0675,3.37323-2.4384,3.37323-2.4384"/><path class="cls-7" d="M294.01672,187.13689s.93526-1.65447,3.36697-1.65447,3.53325,1.65447,3.53325,1.65447"/><g><circle class="cls-4" cx="270.49812" cy="187.42464" r="4.70976"/><circle class="cls-11" cx="270.49812" cy="187.42464" r="3.3303"/><circle class="cls-4" cx="271.73899" cy="186.03185" r=".96739"/><circle class="cls-13" cx="270.77159" cy="187.23039" r=".48201"/></g></g></g></svg>