<?xml version="1.0" encoding="UTF-8"?>
<svg id="Game_Character" data-name="Game Character" xmlns="http://www.w3.org/2000/svg" viewBox="0 0 571.08567 237.88671">
    <defs>
        <style>
            .cls-1 {
            fill: #0f206c;
            }

            .cls-1, .cls-2, .cls-3 {
            fill-rule: evenodd;
            }

            .cls-4 {
            fill: #fff;
            }

            .cls-5 {
            fill: #fed103;
            }

            .cls-6 {
            fill: #79cff0;
            }

            .cls-7 {
            stroke: #231f20;
            stroke-linecap: round;
            stroke-width: 1.368px;
            }

            .cls-7, .cls-8 {
            fill: none;
            stroke-miterlimit: 10;
            }

            .cls-9 {
            fill: #483277;
            }

            .cls-2, .cls-10 {
            fill: #35b7ea;
            }

            .cls-3, .cls-11 {
            fill: #231f20;
            }

            .cls-12 {
            fill: #ffd100;
            }

            .cls-8 {
            stroke: #ed1c24;
            stroke-width: 3.6px;
            }

            .cls-13 {
            fill: #d1d3d4;
            }

            .cls-14 {
            fill: #ed0a7c;
            }
        </style>
    </defs>
    <g id="_" data-name="3">
        <path class="cls-3" d="M262.18727,66.32952c-7.96362,0-14.41941-7.97389-14.41941-17.81019s6.45579-17.81019,14.41941-17.81019v35.62038Z"/>
        <path class="cls-3" d="M305.09885,66.32952c7.96362,0,14.41941-7.97389,14.41941-17.81019,0-9.8363-6.45579-17.81019-14.41941-17.81019v35.62038Z"/>
        <g>
            <g>
                <g>
                    <path class="cls-11" d="M257.52569,2.9261c-1.28864-1.07037-2.89697,.37946-3.38776,1.17426-.88239,1.42896-.96649,3.29425-.3949,3.78265,.57153,.4884,2.42133,.16626,3.65796-1.3717,.97681-1.3302,1.35205-2.56573,.12469-3.58521Zm-.17474,3.547c-1.19702,1.48871-2.98749,1.80054-3.54071,1.32776s-.4718-2.27826,.38226-3.66138c.47504-.76935,2.03186-2.17273,3.27917-1.13666,1.18805,.98682,.82483,2.18274-.12073,3.47028Z"/>
                    <path class="cls-11" d="M258.9594,4.18605c-1.14032-1.22711-2.92175,.00397-3.51062,.72906-1.05872,1.30365-1.3819,3.1427-.87787,3.7005,.50403,.55786,2.37988,.47614,3.80396-.89014,1.13971-1.19354,1.67065-2.37054,.58453-3.53943Zm-.62927,3.49518c-1.37842,1.32245-3.19409,1.40155-3.68201,.86157-.48785-.53998-.17505-2.32001,.84973-3.58191,.57001-.70184,2.29437-1.89349,3.39813-.70569,1.05133,1.13141,.53735,2.27069-.56586,3.42603Z"/>
                    <path class="cls-11" d="M260.35308,5.53822c-.97656-1.36108-2.89893-.36438-3.57452,.28076-1.2146,1.15979-1.76697,2.94342-1.33728,3.5603,.42969,.61694,2.30084,.77234,3.8858-.40356,1.28107-1.04041,1.95618-2.14111,1.026-3.4375Zm-1.06476,3.38794c-1.53412,1.13818-3.34534,.98779-3.76123,.39063-.41595-.59717,.11877-2.32361,1.29443-3.44623,.65393-.62445,2.51465-1.58917,3.4599-.27173,.90039,1.25482,.24689,2.32031-.9931,3.32733Z"/>
                    <path class="cls-11" d="M261.47106,7.11555c-.76874-1.48834-2.81537-.78107-3.57739-.24078-1.37006,.97137-2.17535,2.65594-1.83966,3.32867,.33563,.67273,2.16443,1.09796,3.9032,.16443,1.41846-.84351,2.24609-1.83466,1.51385-3.25232Zm-1.54498,3.19769c-1.68304,.90356-3.45325,.492-3.77814-.15918s.45459-2.2818,1.7807-3.22198c.73761-.52295,2.71863-1.20758,3.46277,.23309,.70874,1.37219-.09235,2.33154-1.46533,3.14807Z"/>
                    <path class="cls-11" d="M262.42089,9.01948c-.46637-1.60895-2.61115-1.31091-3.46332-.92822-1.53198,.68799-2.64795,2.18506-2.44873,2.90997,.19916,.72498,1.91119,1.49585,3.79773,.91632,1.55481-.55322,2.55853-1.3656,2.11432-2.89807Zm-2.13434,2.83838c-1.82599,.56097-3.48315-.18518-3.67596-.8869s.88733-2.15076,2.37024-2.81671c.82483-.37042,2.90088-.65894,3.35229,.89844,.42999,1.4834-.54156,2.26971-2.04657,2.80518Z"/>
                    <path class="cls-11" d="M262.81371,10.66688c-.38855-1.62946-2.54517-1.43481-3.41467-1.09351-1.56335,.61359-2.74988,2.05524-2.58575,2.78894,.16412,.73364,1.8371,1.58594,3.74927,1.09772,1.57959-.47791,2.62122-1.24103,2.25116-2.79315Zm-2.26825,2.7326c-1.85089,.4726-3.47028-.35242-3.62915-1.06256s.98969-2.10565,2.50287-2.69958c.84167-.33032,2.9292-.51874,3.30524,1.05853,.35822,1.50232-.64996,2.24103-2.17896,2.70361Z"/>
                    <path class="cls-11" d="M263.35009,12.48262c-.19073-1.66425-2.35516-1.72906-3.25928-1.49426-1.62549,.42218-2.97607,1.71155-2.90088,2.45959s1.63422,1.79437,3.59106,1.53839c1.62543-.28546,2.75079-.91852,2.56909-2.50372Zm-2.57886,2.44159c-1.8941,.24774-3.4032-.76508-3.47595-1.48914s1.2345-1.97211,2.80792-2.38074c.87512-.22723,2.97021-.16455,3.15485,1.44635,.17584,1.53442-.91345,2.14716-2.48682,2.42352Z"/>
                    <path class="cls-11" d="M260.43474,12.4236c-1.65265,.29877-3.09631,1.48291-3.07758,2.2345s1.49469,1.91217,3.46521,1.80402c1.64227-.16241,2.81213-.70911,2.75012-2.30347-.06512-1.67389-2.21857-1.90125-3.13776-1.73505Zm.38263,3.97583c-1.90741,.10461-3.33606-1.01874-3.35419-1.74622-.01807-.72754,1.37927-1.87372,2.97894-2.1629,.88977-.16083,2.97418,.0592,3.03717,1.67944,.06006,1.54327-1.07227,2.07239-2.66193,2.22968Z"/>
                    <path class="cls-11" d="M260.54076,13.95228c-1.65265,.29877-3.09631,1.48291-3.07758,2.2345s1.49469,1.91217,3.46521,1.80402c1.64227-.16241,2.81213-.70911,2.75012-2.30347-.06512-1.67389-2.21857-1.90125-3.13776-1.73505Zm.38263,3.97583c-1.90741,.10461-3.33606-1.01874-3.35419-1.74622-.01807-.72754,1.37927-1.87372,2.97894-2.1629,.88977-.16083,2.97418,.0592,3.03717,1.67944,.06006,1.54327-1.07227,2.07239-2.66193,2.22968Z"/>
                    <path class="cls-11" d="M260.69317,15.39363c-1.66406,.22662-3.15784,1.34686-3.17181,2.09857s1.41016,1.97534,3.38354,1.953c1.64777-.09094,2.84027-.58624,2.84766-2.18176,.00769-1.67517-2.13379-1.99591-3.05939-1.86981Zm.20941,3.98865c-1.91016,.02167-3.28857-1.16278-3.27509-1.89038,.01355-.7276,1.45941-1.81195,3.07013-2.03131,.89594-.12201,2.96881,.18842,2.9613,1.80988-.00708,1.54443-1.16138,2.02386-2.75635,2.11182Z"/>
                    <path class="cls-11" d="M260.69945,16.90046c-1.66406,.22662-3.15784,1.34686-3.17181,2.09857s1.41016,1.97534,3.38354,1.953c1.64777-.09094,2.84027-.58624,2.84766-2.18176,.00769-1.67517-2.13379-1.99591-3.05939-1.86981Zm.20941,3.98865c-1.91016,.02167-3.28857-1.16278-3.27509-1.89038,.01355-.7276,1.45941-1.81195,3.07013-2.03131,.89594-.12201,2.96881,.18842,2.9613,1.80988-.00708,1.54443-1.16138,2.02386-2.75635,2.11182Z"/>
                    <path class="cls-11" d="M260.69317,18.36915c-1.66406,.22662-3.15784,1.34692-3.17181,2.09863-.01398,.75165,1.41016,1.97534,3.38354,1.953,1.64777-.09094,2.84027-.58624,2.84766-2.18182,.00769-1.67511-2.13379-1.99585-3.05939-1.86981Zm.20941,3.98871c-1.91016,.02167-3.28857-1.16278-3.27509-1.89038,.01355-.7276,1.45941-1.81195,3.07013-2.03131,.89594-.12201,2.96881,.18842,2.9613,1.80988-.00708,1.54443-1.16138,2.02386-2.75635,2.11182Z"/>
                    <path class="cls-11" d="M260.63457,19.8133c-1.66406,.22662-3.15784,1.34692-3.17181,2.09863-.01398,.75165,1.41016,1.97534,3.38354,1.953,1.64777-.09094,2.84027-.58624,2.84766-2.18182,.00769-1.67511-2.13379-1.99585-3.05939-1.86981Zm.20941,3.98871c-1.91016,.02167-3.28857-1.16278-3.27509-1.89038,.01355-.7276,1.45941-1.81195,3.07013-2.03131,.89594-.12201,2.96881,.18842,2.9613,1.80988-.00708,1.54443-1.16138,2.02386-2.75635,2.11182Z"/>
                    <path class="cls-11" d="M260.69317,21.3835c-1.66406,.22662-3.15784,1.34692-3.17181,2.09863-.01398,.75165,1.41016,1.97534,3.38354,1.953,1.64777-.09094,2.84027-.58624,2.84766-2.18182,.00769-1.67511-2.13379-1.99585-3.05939-1.86981Zm.20941,3.98871c-1.91016,.02167-3.28857-1.16278-3.27509-1.89038,.01355-.7276,1.45941-1.81195,3.07013-2.03131,.89594-.12201,2.96881,.18842,2.9613,1.80988-.00708,1.54443-1.16138,2.02386-2.75635,2.11182Z"/>
                    <path class="cls-11" d="M260.38152,23.0663c-1.64783,.09088-2.84033,.58618-2.84766,2.18176-.00775,1.67517,2.13379,1.99585,3.05933,1.86981,1.66406-.22662,3.15784-1.34692,3.17181-2.09857,.01398-.75171-1.4101-1.97534-3.38348-1.953Zm.20721,3.98462c-.89594,.12201-2.96881-.18842-2.9613-1.80988,.00714-1.54443,1.16138-2.02386,2.75635-2.11188,1.91016-.02161,3.28864,1.16278,3.27509,1.89038s-1.45941,1.81201-3.07013,2.03137Z"/>
                    <path class="cls-11" d="M260.13811,24.49525c-1.5907,.4397-2.65039,1.17755-2.31781,2.7381,.34912,1.63837,2.50983,1.49573,3.38733,1.17554,1.57764-.57574,2.79858-1.9884,2.65222-2.72583-.14642-.73743-1.7984-1.62982-3.72174-1.18781Zm1.05084,3.84912c-.84937,.31-2.9408,.44806-3.27875-1.13782-.3219-1.51056,.70386-2.22473,2.24353-2.65033,1.86169-.42786,3.46075,.43591,3.60248,1.14972,.14166,.71375-1.04016,2.08112-2.56726,2.63843Z"/>
                    <path class="cls-11" d="M264.26324,26.52473c-.28925-.69397-2.08496-1.24231-3.88312-.42896-1.47241,.74536-2.36536,1.67804-1.73102,3.14209,.66595,1.53711,2.75586,.97034,3.5528,.48303,1.4328-.87616,2.35052-2.5022,2.06134-3.19617Zm-2.09235,3.1366c-.77136,.47174-2.79431,1.02032-3.43896-.46753-.61401-1.41711,.25037-2.31989,1.6756-3.04132,1.74048-.78729,3.47864-.25653,3.75861,.41516s-.6084,2.24567-1.99524,3.09369Z"/>
                    <path class="cls-11" d="M264.82366,27.29524c-.42761-.61835-2.29828-.78009-3.88715,.39044-1.28461,1.03607-1.96338,2.13446-1.0376,3.43402,.97192,1.36438,2.89764,.37415,3.57544-.26868,1.21851-1.1557,1.77692-2.93744,1.3493-3.55579Zm-1.39209,3.50403c-.65601,.62225-2.52002,1.58075-3.46082,.26007-.89612-1.25787-.23907-2.32111,1.00433-3.32397,1.53796-1.133,3.34863-.97644,3.76251-.37793,.41394,.59857-.12659,2.32318-1.30603,3.44183Z"/>
                    <path class="cls-11" d="M265.51409,28.12068c-.50238-.55933-2.37842-.48315-3.80652,.87891-1.14325,1.19025-1.67767,2.36566-.59497,3.53772,1.13672,1.23047,2.92175,.00464,3.51276-.71875,1.06256-1.30054,1.39111-3.13855,.88873-3.69788Zm-.93768,3.65198c-.57208,.7002-2.29987,1.88672-3.40015,.69568-1.04803-1.13446-.5307-2.27228,.57587-3.42432,1.38232-1.31842,3.19824-1.39215,3.68451-.85077,.48633,.54138,.16827,2.32056-.86023,3.57941Z"/>
                    <path class="cls-11" d="M266.34911,28.73127c-.58466-.47272-2.42493-.1004-3.61932,1.47064-.94031,1.35626-1.28186,2.6015-.02722,3.58728,1.31726,1.03497,2.88562-.45807,3.35461-1.26593,.8432-1.45239,.87653-3.31927,.29193-3.79199Zm-.34753,3.75439c-.45398,.78198-1.97211,2.22717-3.24707,1.2254-1.21442-.95422-.88385-2.15955,.02631-3.47229,1.15613-1.52069,2.93744-1.8811,3.5033-1.42352,.56592,.45752,.53363,2.26459-.28253,3.67041Z"/>
                    <path class="cls-11" d="M267.30096,29.27931c-.64783-.38141-2.41327,.25787-3.36322,1.98767-.73035,1.47992-.88477,2.7619,.5014,3.55219,1.45526,.82965,2.78668-.87811,3.13153-1.74622,.62012-1.56073,.37817-3.41217-.26971-3.79364Zm.20923,3.76465c-.33386,.84033-1.62256,2.49329-3.03119,1.69025-1.34174-.76495-1.19232-2.0058-.48535-3.43829,.91949-1.67438,2.62836-2.29321,3.25543-1.92395,.62708,.3692,.86127,2.16132,.26111,3.672Z"/>
                    <path class="cls-11" d="M268.51464,29.83802c-.66956-.34198-2.39349,.40192-3.23816,2.18549-.64038,1.52106-.71777,2.80994,.71326,3.51575,1.50232,.74103,2.72906-1.0434,3.02136-1.9306,.52551-1.59509,.1731-3.42871-.49646-3.77063Zm.43427,3.74536c-.2829,.85876-1.47034,2.58594-2.9245,1.86871-1.38513-.68323-1.31024-1.93085-.69043-3.40308,.81763-1.72644,2.48633-2.44647,3.1344-2.11548s.9892,2.10583,.48053,3.64984Z"/>
                    <path class="cls-11" d="M269.62713,30.18989c-.70056-.27295-2.341,.64038-3.00214,2.49988-.48431,1.57764-.43176,2.86786,1.06293,3.42627,1.56921,.5863,2.61041-1.31238,2.81207-2.22449,.36255-1.63977-.17236-3.42871-.87286-3.70166Zm.80847,3.68274c-.19519,.88287-1.203,2.72064-2.72192,2.1532-1.44678-.54059-1.49768-1.78937-1.02893-3.31647,.63995-1.79987,2.22784-2.68396,2.90594-2.4198,.67804,.26422,1.1958,1.99579,.84491,3.58307Z"/>
                </g>
                <g>
                    <path class="cls-11" d="M318.58477,10.28651c-1.49561-.76404-3.36157-.69714-3.80219-.08795-.44067,.60913,.02991,2.42682,1.66284,3.53516,1.40472,.86615,2.6665,1.14032,3.58356-.16547,.96271-1.37085-.61237-2.85681-1.44421-3.28174Zm1.36334,3.23413c-.88763,1.26392-2.10895,.99847-3.46869,.1601-1.58057-1.07275-2.03607-2.83221-1.60956-3.42181,.42651-.58966,2.23273-.65442,3.68036,.08508,.80518,.41138,2.32977,1.84967,1.39789,3.17664Z"/>
                    <path class="cls-11" d="M317.95586,11.68745c-1.3689-.9729-3.22485-1.17743-3.74921-.63861-.52435,.53876-.32245,2.40552,1.13239,3.73895,1.26422,1.06079,2.4729,1.51514,3.56964,.35626,1.15143-1.21674-.19141-2.91547-.95282-3.4566Zm.87976,3.39771c-1.06158,1.12177-2.23157,.68201-3.45526-.34479-1.4082-1.29071-1.60364-3.0976-1.09607-3.61914,.50751-.52148,2.30402-.32355,3.62903,.61816,.737,.52374,2.0368,2.16809,.9223,3.34576Z"/>
                    <path class="cls-11" d="M317.15844,13.09315c-1.15485-1.2193-2.93622-1.77893-3.55487-1.35175s-.78162,2.29767,.38782,3.88739c1.03516,1.28528,2.13312,1.96484,3.43329,1.03992,1.36505-.97101,.37616-2.8974-.26624-3.57556Zm.20593,3.50366c-1.25848,.89526-2.32129,.23749-3.32324-1.00659-1.13196-1.53876-.97424-3.3493-.37537-3.76282,.59882-.41345,2.32306,.12823,3.44092,1.30841,.62177,.65649,1.57898,2.52112,.25769,3.461Z"/>
                    <path class="cls-11" d="M315.90496,13.99873c-1.09497-1.27338-2.84735-1.91791-3.48584-1.521-.63849,.39697-.89117,2.25751,.20056,3.90155,.97223,1.33356,2.03625,2.06506,3.37939,1.20374,1.4101-.9043,.51489-2.87598-.09412-3.58429Zm.03735,3.50958c-1.30011,.83374-2.33008,.12567-3.27112-1.16516-1.0567-1.59131-.81213-3.39221-.19409-3.77643,.61798-.38428,2.31421,.23962,3.37408,1.47223,.58948,.68555,1.45599,2.59406,.09113,3.46936Z"/>
                    <path class="cls-11" d="M314.79735,15.1186c-.93475-1.39526-2.59747-2.24487-3.27881-1.92712-.6814,.31775-1.15485,2.13464-.2677,3.89752,.80566,1.44031,1.7746,2.29382,3.21112,1.59937,1.50818-.72906,.85529-2.7937,.33539-3.56976Zm-.38287,3.48883c-1.39044,.67218-2.32831-.15399-3.10815-1.54816-.8587-1.70636-.40045-3.46503,.25909-3.77258s2.26892,.51483,3.17371,1.86536c.5033,.75116,1.13519,2.74963-.32465,3.45538Z"/>
                    <path class="cls-11" d="M313.5559,15.91676c-.82721-1.46161-2.42133-2.43378-3.12463-2.16821-.70337,.26563-1.31207,2.04181-.55994,3.86639,.69513,1.49677,1.59705,2.42078,3.08173,1.83624,1.55878-.61365,1.06293-2.7215,.60284-3.53442Zm-.64404,3.45013c-1.43707,.5658-2.31012-.32861-2.98297-1.7774-.72803-1.76611-.13879-3.48535,.54199-3.74243s2.22382,.68396,3.02448,2.09863c.44537,.78693,.92529,2.82721-.5835,3.4212Z"/>
                    <path class="cls-11" d="M312.14776,16.52113c-.82715-1.46155-2.42126-2.43378-3.12463-2.16815-.70331,.26556-1.31207,2.04175-.55994,3.86633,.69513,1.49677,1.59711,2.42078,3.08179,1.8363,1.55872-.61365,1.06293-2.72156,.60278-3.53448Zm-.64404,3.45013c-1.43707,.5658-2.31012-.32861-2.98297-1.7774-.72803-1.76605-.13879-3.48535,.54199-3.74243s2.22382,.68396,3.02448,2.09869c.44537,.78687,.92529,2.82721-.5835,3.42114Z"/>
                    <path class="cls-11" d="M310.83745,17.14045c-.76294-1.49615-2.31323-2.53674-3.02747-2.30194-.71423,.23474-1.3996,1.98279-.72748,3.83832,.62939,1.52563,1.4903,2.48792,2.99902,1.96857,1.58392-.54535,1.18024-2.67279,.75592-3.50494Zm-.79346,3.41888c-1.46033,.50275-2.2937-.42871-2.90289-1.9054-.65057-1.79608,.01282-3.4881,.70416-3.71533s2.19196,.77997,2.93042,2.22815c.41071,.80554,.80145,2.86481-.73169,3.39258Z"/>
                    <path class="cls-11" d="M309.41704,17.64344c-.76288-1.49615-2.31323-2.53668-3.02747-2.30194-.71423,.2348-1.3996,1.98285-.72748,3.83838,.62939,1.52557,1.4903,2.48792,2.99902,1.96851,1.58392-.54529,1.18024-2.67273,.75592-3.50494Zm-.79346,3.41895c-1.46033,.50275-2.29364-.42877-2.90289-1.90546-.65057-1.79602,.01288-3.48804,.70416-3.71533,.69135-.22723,2.19202,.78003,2.93042,2.22821,.41071,.80548,.80145,2.86475-.73169,3.39258Z"/>
                    <path class="cls-11" d="M308.02843,18.12202c-.76288-1.49615-2.31323-2.53668-3.02747-2.30194-.71423,.2348-1.3996,1.98285-.72748,3.83838,.62939,1.52557,1.49036,2.48792,2.99902,1.96851,1.58392-.54529,1.18024-2.67273,.75592-3.50494Zm-.79346,3.41895c-1.46033,.50275-2.29364-.42877-2.90289-1.90546-.65051-1.79602,.01288-3.48804,.70416-3.71533,.69135-.22723,2.19202,.78003,2.93042,2.22821,.41071,.80548,.80145,2.86475-.73169,3.39258Z"/>
                    <path class="cls-11" d="M306.6458,18.54316c-.76288-1.49615-2.31323-2.53674-3.02747-2.30194-.71423,.23474-1.3996,1.98279-.72748,3.83832,.62939,1.52557,1.49036,2.48792,2.99902,1.96857,1.58392-.54535,1.18024-2.67279,.75592-3.50494Zm-.79346,3.41888c-1.46033,.50275-2.29364-.42871-2.90289-1.9054-.65051-1.79608,.01288-3.4881,.70416-3.71533,.69135-.22723,2.19202,.77997,2.93042,2.22815,.41071,.80554,.80151,2.86475-.73169,3.39258Z"/>
                    <path class="cls-11" d="M305.18279,19.11641c-.76288-1.49615-2.31323-2.53668-3.02747-2.30194-.71417,.2348-1.39954,1.98285-.72748,3.83838,.62939,1.52557,1.49036,2.48792,2.99902,1.96851,1.58392-.54529,1.18024-2.67273,.75592-3.50494Zm-.7934,3.41895c-1.46033,.50275-2.2937-.42877-2.90295-1.90546-.65051-1.79602,.01288-3.48804,.70422-3.71533,.69128-.22723,2.19196,.78003,2.93036,2.22821,.41077,.80548,.80151,2.86475-.73163,3.39258Z"/>
                    <path class="cls-11" d="M303.49145,19.37733c-.62939-1.52557-1.49036-2.48792-2.99902-1.96851-1.58392,.54529-1.18024,2.67273-.75592,3.50488,.76288,1.49615,2.31323,2.53674,3.02747,2.302,.71417-.2348,1.39954-1.98285,.72748-3.83838Zm-.76282,3.73822c-.69128,.22729-2.19196-.77997-2.93036-2.22815-.41077-.80548-.80151-2.86475,.73163-3.39258,1.46039-.50275,2.2937,.42877,2.90295,1.90546,.65051,1.79602-.01288,3.48804-.70422,3.71527Z"/>
                    <path class="cls-11" d="M302.06212,19.61891c-.93976-1.35657-1.9859-2.11353-3.34937-1.28479-1.43152,.87006-.58411,2.86273,.00769,3.58551,1.06396,1.29938,2.80029,1.98602,3.44818,1.60455,.64783-.38147,.94525-2.23535-.10651-3.90527Zm.05066,3.81494c-.62708,.36926-2.30774-.29535-3.33765-1.5531-.57281-.69958-1.39307-2.62842-.00745-3.47058,1.31982-.80219,2.3324-.06946,3.24207,1.24365,1.01807,1.61633,.73016,3.41083,.10303,3.78003Z"/>
                    <path class="cls-11" d="M300.63103,20.37538c-1.18933-1.1441-2.36438-1.67944-3.53723-.5976-1.23138,1.13574-.0069,2.92169,.71606,3.51324,1.29968,1.06354,3.13751,1.39355,3.6972,.8916s.48499-2.37811-.87604-3.80725Zm.80353,3.72974c-.54181,.48584-2.32068,.16644-3.57874-.86298-.69977-.57263-1.88501-2.30133-.69312-3.4007,1.13525-1.04712,2.27264-.52899,3.42389,.57849,1.31732,1.3833,1.38971,3.19928,.84796,3.68518Z"/>
                    <path class="cls-11" d="M299.31371,21.42512c-1.40179-.87091-2.66266-1.14935-3.58411,.15332-.96735,1.36761,.60272,2.85889,1.43311,3.28668,1.49304,.76904,3.35919,.70837,3.80188,.10077,.44269-.60767-.02173-2.42694-1.65088-3.54077Zm1.56378,3.4801c-.42847,.58813-2.23486,.64685-3.67999-.09753-.80383-.41406-2.32355-1.85754-1.38721-3.18134,.89191-1.26093,2.11237-.99139,3.46924-.14838,1.5769,1.07813,2.02649,2.83905,1.59796,3.42725Z"/>
                    <path class="cls-11" d="M298.32769,22.58644c-1.50067-.68658-2.78668-.80334-3.53589,.60541-.78668,1.47894,.95941,2.7597,1.83728,3.07898,1.57825,.57404,3.42181,.27789,3.78406-.38086,.3623-.65881-.32849-2.40472-2.08545-3.30353Zm1.99139,3.25433c-.35071,.6377-2.13513,.92432-3.66284,.36871-.84967-.30908-2.53979-1.54877-1.77838-2.98035,.72522-1.36359,1.96997-1.25055,3.42261-.58594,1.70062,.87,2.36926,2.55994,2.01862,3.19757Z"/>
                    <path class="cls-11" d="M297.52984,23.94807c-1.59052-.44031-2.87872-.35193-3.39545,1.15771-.54248,1.5849,1.38434,2.57294,2.3017,2.74921,1.64923,.31683,3.42267-.26752,3.67603-.97534,.25342-.70782-.7052-2.32233-2.58228-2.93158Zm2.48157,2.89795c-.24524,.68512-1.96179,1.25079-3.55817,.94403-.88794-.17059-2.75299-1.12695-2.22791-2.66107,.50012-1.46118,1.74707-1.54675,3.28656-1.12054,1.81696,.58972,2.74481,2.1524,2.49951,2.83759Z"/>
                    <path class="cls-11" d="M296.9229,25.43977c-1.638-.20123-2.89917,.07593-3.18793,1.64514-.30316,1.64752,1.74823,2.341,2.68152,2.38025,1.67792,.0705,3.34589-.76868,3.49225-1.5061,.14642-.73743-1.03949-2.19312-2.98584-2.51929Zm-.49902,3.95868c-.90338-.03796-2.88898-.70923-2.59552-2.30396,.27948-1.51892,1.50018-1.78723,3.08569-1.59241,1.88397,.31567,3.03186,1.72473,2.8902,2.43854-.14172,.71381-1.75623,1.52606-3.38037,1.45782Z"/>
                    <path class="cls-11" d="M296.65038,26.95308c-1.64716-.10278-2.8894,.24939-3.08368,1.83313-.20392,1.66272,1.88525,2.23212,2.81921,2.21533,1.67914-.03009,3.29388-.96765,3.39581-1.71252,.10199-.74487-1.16895-2.12695-3.13135-2.33594Zm-.26105,3.98145c-.90405,.01624-2.92627-.53491-2.72888-2.14435,.18805-1.53296,1.3905-1.87384,2.9848-1.77435,1.89954,.20227,3.1297,1.54004,3.03107,2.26105-.09869,.72101-1.66168,1.62854-3.28699,1.65765Z"/>
                    <path class="cls-11" d="M296.46624,28.44587c-1.64911,.06329-2.84967,.53851-2.88379,2.13379-.03583,1.67474,2.10004,2.03131,3.02759,1.92078,1.6676-.19867,3.17993-1.29376,3.20654-2.0451,.02655-.75134-1.37683-1.99872-3.35034-2.00946Zm.14044,3.98755c-.89783,.10699-2.96521-.23816-2.93054-1.85925,.03302-1.54413,1.19513-2.00409,2.79138-2.06537,1.91022,.01038,3.26862,1.21777,3.24292,1.94501-.02576,.72729-1.48962,1.78729-3.10376,1.97961Z"/>
                    <path class="cls-11" d="M296.37389,29.91359c-1.64026,.18201-2.80347,.74261-2.72247,2.33612,.08502,1.67303,2.24103,1.87463,3.1582,1.69751,1.64899-.31842,3.07837-1.51971,3.05072-2.271s-1.51733-1.89423-3.48645-1.76263Zm.42755,3.96704c-.88776,.17145-2.97467-.02374-3.05701-1.64313-.07837-1.54248,1.04755-2.08508,2.63519-2.26123,1.90601-.12738,3.34796,.97888,3.37476,1.70612s-1.35687,1.89001-2.95294,2.19824Z"/>
                </g>
            </g>
            <circle class="cls-5" cx="317.01502" cy="13.42044" r="4.70647"/>
            <circle class="cls-14" cx="253.98767" cy="4.70647" r="4.70647"/>
        </g>
        <rect class="cls-13" x="253.18094" y="30.70914" width="60.84242" height="35.62038" rx="8.63588" ry="8.63588"/>
        <rect class="cls-13" x="258.88657" y="75.3316" width="50.27449" height="43.67309" rx="6.86012" ry="6.86012" transform="translate(381.19196 -186.85567) rotate(90)"/>
        <g>
            <path class="cls-2" d="M280.42061,157.199h-9.32719c0-1.85047,2.08796-3.35057,4.66359-3.35057s4.66359,1.5001,4.66359,3.35057Z"/>
            <rect class="cls-10" x="260.98492" y="136.85183" width="33.62864" height="7.06569" rx="1.19936" ry="1.19936" transform="translate(418.18391 -137.41456) rotate(90)"/>
        </g>
        <g>
            <path class="cls-2" d="M287.37324,157.199h9.32719c0-1.85047-2.08796-3.35057-4.66359-3.35057s-4.66359,1.5001-4.66359,3.35057Z"/>
            <rect class="cls-10" x="273.18029" y="136.85183" width="33.62864" height="7.06569" rx="1.19936" ry="1.19936" transform="translate(430.37928 -149.60993) rotate(90)"/>
        </g>
        <circle class="cls-12" cx="272.13472" cy="91.32313" r="8.28589"/>
        <circle class="cls-8" cx="294.83721" cy="83.37828" r="4.7446"/>
        <rect class="cls-10" x="281.17312" y="61.62292" width="5.70138" height="15.11457" rx="1.90965" ry="1.90965" transform="translate(353.20402 -214.8436) rotate(90)"/>
        <g>
            <rect class="cls-10" x="260.18378" y="77.10285" width="4.23394" height="35.33745" rx="1.64651" ry="1.64651" transform="translate(525.2484 187.73325) rotate(179.60514)"/>
            <circle class="cls-6" cx="262.24967" cy="76.03705" r="4.00529"/>
            <path class="cls-6" d="M264.10221,113.38331c-1.41734-.6616-3.10269-.0489-3.76432,1.36849-.31889,.68314-.33562,1.42677-.115,2.08963-1.57661-1.09052-2.19208-3.18192-1.35397-4.97738,.93559-2.0043,3.31899-2.87071,5.3234-1.93506,2.00447,.93567,2.87088,3.31907,1.93528,5.32337-.11277,.24158-.24869,.4648-.40028,.67209-.01052-1.05595-.60427-2.06461-1.62511-2.54114Z"/>
        </g>
        <g>
            <path class="cls-10" d="M312.62396,86.66052l-7.47352,14.4216c-.45973,.78457-.1964,1.79328,.58817,2.25301l.81182,.4757c.78457,.45973,1.79328,.1964,2.25301-.58817l8.11184-15.13119"/>
            <path class="cls-10" d="M316.91527,88.09146l-9.53745-12.87433c-.5413-.73068-1.57245-.88421-2.30313-.34291l-.75606,.5601c-.73068,.5413-.88421,1.57245-.34291,2.30313l9.53745,12.87433"/>
            <circle class="cls-6" cx="305.05165" cy="75.5264" r="4.00529"/>
            <path class="cls-6" d="M305.86489,106.2861c.48459-1.48719-.32824-3.08567-1.81548-3.57028-.71681-.23357-1.45697-.15988-2.08813,.1396,.89099-1.69737,2.89218-2.56225,4.77613-1.94837,2.10308,.68528,3.2525,2.94582,2.56719,5.04902s-2.94588,3.25268-5.04896,2.5674c-.25348-.0826-.49156-.19041-.71573-.31571,1.04686-.13867,1.97595-.85051,2.32499-1.92166Z"/>
        </g>
        <polygon class="cls-1" points="266.21572 118.75087 292.24619 118.75089 266.21572 94.2289 266.21572 118.75087"/>
        <rect class="cls-9" x="290.76739" y="91.01897" width="8.62603" height="23.57282"/>
        <rect class="cls-14" x="277.42268" y="97.7216" width="5.33987" height="16.02293" rx="1.32936" ry="1.32936" transform="translate(174.35955 385.82569) rotate(-90)"/>
        <g>
            <line class="cls-7" x1="268.21881" y1="40.34021" x2="272.45851" y2="40.34021"/>
            <line class="cls-7" x1="295.50625" y1="40.27101" x2="299.78637" y2="40.27101"/>
            <path class="cls-7" d="M281.8045,60.97189s1.09413,1.0675,2.16103,1.0675,3.37323-2.4384,3.37323-2.4384"/>
            <path class="cls-7" d="M294.44408,48.26902s.93526-1.65447,3.36697-1.65447,3.53325,1.65447,3.53325,1.65447"/>
            <g>
                <circle class="cls-4" cx="270.92548" cy="48.55678" r="4.70976"/>
                <circle class="cls-11" cx="270.92548" cy="48.55678" r="3.3303"/>
                <circle class="cls-4" cx="272.16635" cy="47.16399" r=".96739"/>
                <circle class="cls-13" cx="271.19895" cy="48.36252" r=".48201"/>
            </g>
        </g>
    </g>
</svg>